<svg width="1072" height="829" viewBox="0 0 1072 829" fill="none" xmlns="http://www.w3.org/2000/svg">
<g opacity="0.7" filter="url(#filter0_di_8_642)">
<path fill-rule="evenodd" clip-rule="evenodd" d="M74.1095 405.683C79.6762 396.41 77.4634 383.453 73.434 373.416C65.9031 354.656 63.2809 317.064 102.361 249.623C165.087 141.376 292.121 165.102 373.32 122.524C493.295 59.6134 444.12 10.3811 593.719 2.44531C782.076 -7.54643 792.743 153.921 886.98 153.921C893.178 153.921 1039.92 105.521 1061.4 238.019C1071.74 301.756 903.187 397.452 888.062 405.899C887.262 406.346 886.645 406.749 885.915 407.301C876.621 414.329 809.591 465.829 805.651 492.186C787.896 610.977 824.923 747.033 409.974 809.668C356.308 817.768 267.197 788.467 218.035 734.34C179.52 691.935 25.0206 722.021 10.5985 582.607C4.95279 528.032 52.5633 441.576 74.1095 405.683Z" fill="#662EDC"/>
<path d="M449.572 251.491C450.268 251.08 451.164 251.312 451.575 252.007L453.231 254.801C459.806 265.832 462.436 269.415 465.231 271.034C467.528 272.365 469.904 271.952 474.252 269.402L474.833 269.053C477.567 267.349 490.081 258.753 494.92 255.666C495.601 255.232 496.505 255.431 496.939 256.113C497.374 256.794 497.174 257.698 496.493 258.132L495.748 258.612C490.357 262.107 478.245 270.425 476.101 271.707C470.836 274.855 467.423 275.562 464.003 273.699L463.764 273.565C460.09 271.436 457.232 267.352 449.055 253.494C448.645 252.798 448.876 251.901 449.572 251.491Z" fill="white"/>
<path d="M473.26 268.398C474.06 268.291 474.796 268.853 474.904 269.654C475.402 273.375 476.595 277.106 478.489 280.851C478.854 281.572 478.565 282.452 477.844 282.816C477.123 283.181 476.243 282.892 475.879 282.171C473.84 278.141 472.547 274.097 472.004 270.042C471.897 269.241 472.459 268.505 473.26 268.398Z" fill="white"/>
<path fill-rule="evenodd" clip-rule="evenodd" d="M643.664 357.737C643.488 358.182 643.156 358.754 642.75 359.341C642.506 359.693 642.53 360.171 642.828 360.48L643.428 361.119L643.561 361.247C643.619 361.299 643.665 361.33 643.698 361.339C643.893 361.367 644.028 361.546 644.001 361.741C643.973 361.932 643.795 362.07 643.601 362.042C643.425 362.038 642.787 361.789 642.027 361.171C641.789 360.978 641.441 360.982 641.226 361.2C640.918 361.512 640.617 361.775 640.347 361.96C639.783 362.349 639.295 362.38 639.062 362.222C638.833 362.069 638.613 361.554 638.986 360.513C639.044 360.324 639.245 360.225 639.431 360.284C639.617 360.343 639.72 360.541 639.661 360.729C639.636 360.817 639.62 360.9 639.61 360.979C639.597 361.089 639.721 361.155 639.812 361.093C639.889 361.038 639.967 360.977 640.039 360.904C640.547 360.404 640.529 359.603 640.124 359.015C639.926 358.727 639.736 358.419 639.565 358.092C639.378 357.735 639.229 357.357 639.088 356.959C638.99 356.737 639.091 356.476 639.314 356.377C639.537 356.279 639.798 356.381 639.896 356.603C640.322 357.496 640.866 358.266 641.404 358.925C641.495 359.035 641.666 359.031 641.751 358.916C642.167 358.35 642.515 357.793 642.684 357.357C642.79 357.088 643.095 356.954 643.364 357.057C643.636 357.164 643.77 357.468 643.664 357.737Z" fill="white"/>
<path fill-rule="evenodd" clip-rule="evenodd" d="M426.022 173.21L425.131 173.049C420.152 172.123 416.335 170.987 409.204 168.515C408.386 168.231 407.953 167.338 408.237 166.521C408.52 165.703 409.413 165.27 410.231 165.553L412.008 166.165C418.263 168.3 421.773 169.278 426.567 170.123C442.696 172.968 454.773 164.687 455.761 148.894C455.815 148.03 456.559 147.373 457.423 147.427C458.287 147.482 458.943 148.226 458.889 149.089C457.778 166.851 443.905 176.363 426.022 173.21Z" fill="#00160A"/>
<path fill-rule="evenodd" clip-rule="evenodd" d="M466.325 190.123L466.349 190.177C466.905 191.411 467.975 192.338 469.277 192.712C469.387 192.744 469.452 192.86 469.42 192.97C469.41 193.005 469.391 193.036 469.366 193.061C468.373 194.05 467.839 195.41 467.894 196.81L467.895 196.846C467.899 196.961 467.81 197.058 467.694 197.063C467.655 197.064 467.617 197.055 467.583 197.035L465.818 196.03C465.763 195.999 465.697 195.994 465.638 196.018L463.75 196.767C463.643 196.81 463.522 196.758 463.479 196.65C463.465 196.614 463.461 196.574 463.468 196.536L463.474 196.501C463.723 195.122 463.383 193.701 462.537 192.583C462.468 192.491 462.486 192.36 462.578 192.291C462.606 192.269 462.639 192.255 462.675 192.25C464.015 192.062 465.205 191.292 465.926 190.147L465.958 190.098C466.019 190 466.148 189.971 466.246 190.032C466.281 190.054 466.308 190.086 466.325 190.123Z" fill="#00160A"/>
<path d="M672.475 139.858C673.281 139.801 673.98 140.407 674.038 141.213C674.095 142.019 673.489 142.719 672.683 142.776C666.911 143.188 662.378 145.425 660.364 150.958C660.243 151.291 660.143 151.612 660.061 151.918L660.058 151.93C660.052 151.953 660.085 151.965 660.095 151.943C662.63 146.766 667.521 143.169 673.188 142.256L673.558 142.2C674.358 142.089 675.098 142.647 675.209 143.447C675.321 144.247 674.763 144.986 673.963 145.098C668.698 145.832 664.195 149.331 662.23 154.35L662.103 154.687C661.169 157.252 658.928 158.481 657.486 156.286C656.606 154.948 656.664 152.57 657.615 149.957C660.027 143.33 665.562 140.351 672.475 139.858Z" fill="white"/>
<path d="M665.812 128.961C666.618 128.904 667.318 129.51 667.375 130.316C667.433 131.122 666.826 131.822 666.02 131.879C656.839 132.534 648.788 138.497 645.585 147.298C644.635 149.907 644.458 152.138 644.798 153.268L644.804 153.286C644.819 153.33 644.878 153.339 644.905 153.3C645.068 153.053 645.252 152.697 645.432 152.235L645.509 152.031C648.893 142.735 657.097 136.224 666.719 134.881C667.519 134.769 668.258 135.327 668.37 136.127C668.482 136.927 667.924 137.667 667.123 137.778C658.706 138.953 651.511 144.571 648.412 152.62L648.258 153.032C647.003 156.479 644.29 157.968 642.555 155.329C641.367 153.52 641.45 150.105 642.836 146.298C646.437 136.402 655.49 129.698 665.812 128.961Z" fill="white"/>
<path d="M656.834 114.432C657.64 114.374 658.339 114.981 658.397 115.787C658.454 116.592 657.848 117.292 657.042 117.35C643.947 118.284 632.464 126.789 627.895 139.342C626.34 143.614 626.21 147.235 627.059 148.74L627.137 148.867C627.263 149.058 627.22 149.064 627.253 149.038L627.272 149.025C627.702 148.789 628.271 147.984 628.789 146.65L628.892 146.376C633.559 133.554 644.873 124.576 658.144 122.723C658.944 122.611 659.683 123.169 659.795 123.97C659.907 124.77 659.349 125.509 658.549 125.62C646.498 127.302 636.205 135.369 631.812 146.919L631.641 147.376C630.018 151.837 626.762 153.624 624.692 150.474C623.149 148.125 623.261 143.52 625.146 138.341C630.113 124.694 642.598 115.447 656.834 114.432Z" fill="white"/>
<path d="M640.805 100.777C641.598 100.622 642.367 101.138 642.522 101.931C642.677 102.724 642.16 103.492 641.368 103.648C629.512 105.969 619.979 115.024 617.214 127.001C616.278 131.055 616.561 134.351 617.479 135.608L617.6 135.764C617.601 135.765 617.601 135.766 617.602 135.768L617.602 135.768C617.606 135.778 617.619 135.781 617.628 135.774C617.957 135.478 618.341 134.72 618.639 133.544L618.702 133.286C621.545 120.968 630.937 111.433 642.932 108.231C643.713 108.023 644.514 108.486 644.723 109.267C644.931 110.047 644.467 110.849 643.687 111.057C632.879 113.942 624.389 122.451 621.664 133.477L621.552 133.944C620.549 138.289 617.669 140.362 615.336 137.612C613.63 135.601 613.211 131.333 614.363 126.343C617.39 113.232 627.828 103.318 640.805 100.777Z" fill="white"/>
<path d="M478.663 281.173L479.508 280.866C487.488 278.002 494.222 276.739 495.932 278.479C497.432 280.005 498.769 282.769 500.036 286.823C500.277 287.594 499.847 288.414 499.076 288.655C498.305 288.896 497.485 288.466 497.244 287.695C496.148 284.19 495.03 281.83 493.972 280.664L493.949 280.639C493.936 280.626 493.918 280.619 493.899 280.62C493.894 280.62 493.888 280.619 493.883 280.618C493.683 280.579 493.385 280.559 493.008 280.566C492.165 280.582 491.013 280.731 489.637 281.003C486.806 281.564 483.229 282.607 479.676 283.918C473.735 286.109 468.786 288.684 466.052 291.01C465.048 291.864 463.216 289.485 464.979 288.123C468.152 285.671 472.965 283.275 478.663 281.173Z" fill="white"/>
<path d="M474.647 253.541C474.647 258.42 479.807 263.702 480.905 264.003C481.409 264.141 475.954 267.86 472.049 270.463C469.561 272.121 466.376 273.723 463.93 272.003C461.761 270.477 460.561 267.358 460.561 263.394C460.561 262.586 474.647 252.733 474.647 253.541Z" fill="white"/>
<path fill-rule="evenodd" clip-rule="evenodd" d="M458.818 256.105C460.517 255.775 461.672 254.359 461.397 252.943C461.121 251.527 459.521 250.647 457.821 250.977C456.122 251.307 454.968 252.723 455.243 254.139C455.518 255.555 457.119 256.435 458.818 256.105Z" fill="#FFB61D"/>
<path d="M631.958 92.6657C632.753 92.5271 633.511 93.0598 633.65 93.8557C633.788 94.6515 633.255 95.409 632.46 95.5477C628.674 96.207 624.858 98.498 620.922 102.142C615.812 106.874 612.437 113.412 610.576 122.13C609.077 129.154 610.46 137.93 614.38 145.645C618.838 154.423 626.726 156.592 635.924 158.272C645.365 159.996 647.975 158.931 656.896 155.76L657.717 155.461C658.937 154.999 664.638 152.769 666.008 152.354C668.893 151.482 670.86 151.555 672.287 153.075C672.84 153.664 672.81 154.59 672.221 155.143C671.669 155.661 670.821 155.668 670.262 155.181L670.154 155.077C669.733 154.629 668.863 154.577 667.111 155.079L666.855 155.155C665.537 155.553 659.354 157.98 658.554 158.272C648.917 161.789 645.649 163.022 635.398 161.15C625.24 159.294 616.621 156.516 611.771 146.97C607.557 138.673 606.072 129.217 607.715 121.519C609.701 112.215 613.38 105.139 618.935 99.9956C623.283 95.9691 627.615 93.422 631.958 92.6657Z" fill="white"/>
<path d="M700.768 209.052C692.429 208.626 685.863 215.066 685.794 223.711C685.736 230.995 689.838 236.993 695.475 238.155C697.754 238.624 702.129 238.059 705.375 236.239C710.303 233.596 714.07 228.163 714.545 223.533C715.32 215.99 709.213 209.484 700.768 209.052Z" fill="white"/>
<path d="M549.668 207.529C552.332 212.909 556.468 225.334 554.679 225.274C549.71 225.108 543.062 217.471 538.412 207.146L538.045 206.315C533.985 196.94 531.553 191.051 534.377 189.922C537.297 188.755 544.171 196.427 549.668 207.529Z" fill="white"/>
<path fill-rule="evenodd" clip-rule="evenodd" d="M540.23 195.407C537.996 192.58 538.627 191.119 541.057 193.778C543.866 196.85 547.005 201.478 549.769 207.061C550.987 209.522 549.161 210.227 547.855 207.812C545.296 203.08 542.47 198.242 540.23 195.407Z" fill="#E7EAEE"/>
<path d="M532.845 237.537C533.059 236.758 533.864 236.3 534.643 236.515C535.422 236.729 535.88 237.534 535.665 238.313C535.39 239.315 531.515 241.943 523.062 247.154L517.726 250.419C507.192 256.832 500.163 260.935 499.284 260.935C493.468 260.935 488.227 255.449 484.401 246.792C481.06 239.233 479.325 230.235 480.109 224.338C480.353 222.498 486.485 217.734 495.952 211.351L497.308 210.442C505.684 204.863 512.843 200.724 515.433 200.202C516.225 200.042 516.996 200.554 517.156 201.346C517.256 201.842 494.169 221.302 491.914 234.218C490.387 242.963 496.16 257.869 499.025 258.004L499.284 258.01C499.051 258.01 499.126 257.956 499.153 257.94L499.417 257.804C499.611 257.703 499.842 257.578 500.107 257.432L501.325 256.751C501.79 256.488 502.309 256.19 502.876 255.863L504.328 255.019C507.1 253.401 510.558 251.341 514.085 249.207L517.44 247.167C521.519 244.675 525.205 242.377 527.975 240.592L529.402 239.665C530.286 239.085 531.032 238.584 531.629 238.168L531.846 238.016C532.062 237.864 532.255 237.725 532.422 237.602C532.582 237.483 532.898 237.344 532.845 237.537Z" fill="white"/>
<path fill-rule="evenodd" clip-rule="evenodd" d="M535.744 208.347C533.936 204.332 532.645 200.489 531.972 197.11C531.28 193.628 527.445 190.609 524.366 192.376C520.838 194.4 518.038 196.662 517.973 197.153C517.291 202.286 519.908 212.273 524.257 221.176C528.909 230.7 534.444 236.816 538.728 236.816C539.138 236.816 540.312 236.574 541.489 236.163C543.162 235.579 544.73 234.727 546.015 233.611C546.654 233.056 547.315 232.429 548.005 231.729L548.837 230.869C549.328 230.35 549.834 229.791 550.625 228.906L551.725 227.677C551.748 227.652 551.739 227.613 551.707 227.601C546.216 225.555 540.48 218.476 536.185 209.306L535.744 208.347ZM515.073 196.768C515.507 193.504 527.17 186.628 533.33 185.575C533.901 185.477 534.447 185.28 534.986 185.065C540.052 183.04 547.773 191.713 553.966 203.916L554.391 204.763C557.186 210.409 559.094 215.857 559.613 219.932C560.166 224.262 559.112 227.295 556.272 228.029C555.606 228.202 555.04 228.747 554.446 229.093C554.408 229.112 554.373 229.137 554.343 229.167L554.244 229.266C554.1 229.415 553.929 229.6 553.665 229.893L551.848 231.922C551.188 232.648 550.721 233.141 550.088 233.783C549.348 234.534 548.633 235.211 547.933 235.819C545.102 238.279 540.915 239.742 538.728 239.742C536.553 239.742 534.164 239.951 532.377 241.192C530.318 242.622 527.253 244.571 523.062 247.154L517.726 250.42C507.192 256.832 500.163 260.936 499.284 260.936C497.311 260.936 495.404 260.304 493.597 259.132C493.565 259.112 493.525 259.112 493.493 259.132L492.748 259.612C490.157 261.292 486.013 264.086 482.169 266.677L482.168 266.678C482.022 266.777 481.944 266.95 481.97 267.125C482.188 268.579 482.511 270.034 482.942 271.492C484.002 275.083 487.938 276.594 491.627 275.946C494.795 275.388 497.115 275.467 498.022 276.389C499.521 277.915 500.858 280.679 502.125 284.733C502.366 285.504 501.937 286.325 501.166 286.566C500.395 286.807 499.574 286.377 499.333 285.606C498.237 282.1 497.119 279.741 496.062 278.574L496.038 278.55C496.026 278.536 496.007 278.529 495.989 278.53C495.983 278.53 495.978 278.53 495.972 278.529C495.772 278.489 495.475 278.469 495.098 278.476C494.255 278.493 493.102 278.641 491.726 278.914C488.896 279.475 485.318 280.518 481.765 281.828C473.643 284.824 467.375 288.537 466.087 291.35C465.71 292.174 465.758 293.379 466.209 295.224L466.293 295.556C466.36 295.818 466.431 296.077 466.523 296.405L467.052 298.274L467.074 298.358C467.089 298.415 467.105 298.475 467.123 298.545C467.326 299.327 466.856 300.125 466.074 300.328C465.293 300.531 464.494 300.062 464.291 299.28L464.032 298.334L463.599 296.807C463.549 296.626 463.505 296.46 463.461 296.29C462.776 293.648 462.665 291.796 463.427 290.132C464.474 287.847 467.326 285.494 471.364 283.271C473.037 282.349 473.85 280.354 473.161 278.573L472.859 277.774C472.08 275.679 469.655 274.709 467.505 275.319C465.078 276.007 463.042 275.81 461.003 274.699L460.764 274.565C459.638 273.913 458.236 273.771 457.123 274.447L442.82 283.134C442.263 283.473 442.048 284.176 442.324 284.767C443.093 286.417 441.737 287.585 439.656 288.493L439.431 288.589C437.643 289.33 436.029 289.5 435.068 288.445C431.082 284.069 426.862 273.603 429.132 271.209C429.568 270.749 430.719 270.065 432.895 268.924L433.068 268.834C433.113 268.803 433.159 268.774 433.208 268.748L449.233 260.066C449.291 260.034 449.314 259.961 449.28 259.905C448.308 258.296 447.244 256.508 446.07 254.519C445.888 254.224 445.82 253.88 445.866 253.549C445.896 253.338 445.971 253.132 446.092 252.949C446.158 252.847 446.237 252.753 446.329 252.67C449.624 249.545 454.113 246.287 459.745 242.779L460.427 242.356C462.865 240.854 467.808 238.034 472.007 235.639C475.265 233.781 478.075 232.179 478.921 231.643L479.126 231.507C479.573 231.18 480.087 230.711 480.042 230.158C479.866 228.03 479.881 226.053 480.109 224.338C480.353 222.498 486.485 217.734 495.952 211.351L497.308 210.442C503.042 206.622 508.207 203.478 511.725 201.707C513.582 200.772 514.799 198.829 515.073 196.768ZM521.629 222.46C517.033 213.051 506.574 207.735 497.884 213.577C497.785 213.644 497.686 213.71 497.587 213.777L496.344 214.62C492.85 217.004 489.622 219.328 487.184 221.223L486.507 221.754C485.419 222.616 484.539 223.359 483.9 223.955C483.58 224.254 483.328 224.509 483.15 224.713L483.025 224.86C482.998 224.888 482.991 224.877 483.001 224.785L483.009 224.724C483.005 224.747 483.003 224.768 483.001 224.785L482.962 225.099C481.556 237.443 490.482 257.602 499.025 258.004L499.226 258.009C499.243 258.01 499.262 258.01 499.284 258.01L499.226 258.009C499.065 258 499.128 257.954 499.153 257.94L499.417 257.804C499.611 257.703 499.842 257.578 500.107 257.432L501.325 256.752C501.79 256.488 502.309 256.19 502.876 255.863L504.328 255.02C507.1 253.401 510.558 251.341 514.085 249.207L517.44 247.167C521.519 244.675 525.205 242.377 527.975 240.592L529.402 239.665C530.286 239.085 531.032 238.584 531.629 238.168L531.846 238.016C532.246 237.734 532.243 237.15 531.865 236.84C528.364 233.97 524.934 229.116 521.866 222.941L521.629 222.46ZM482.759 242.599C481.388 238.623 476.568 236.404 472.916 238.489C468.811 240.833 464.213 243.459 461.963 244.846C457.474 247.614 453.719 250.21 450.743 252.674C449.817 253.44 449.618 254.767 450.231 255.801C452.434 259.497 454.194 262.357 455.666 264.587C456.396 265.694 458.58 264.703 458.58 263.378C458.58 263.139 458.579 262.897 458.58 262.658C458.58 262.209 458.787 261.765 459.177 261.479L460.173 260.739C460.771 260.287 461.754 259.536 462.872 258.681C465.318 256.812 468.409 254.45 469.512 253.66C472.981 251.175 475.537 249.781 477.866 249.297C478.978 249.066 479.841 249.723 480.092 250.742L480.133 250.928C480.191 251.231 480.202 251.529 480.201 252.18L480.2 252.387C480.188 254.821 480.429 256.225 481.46 257.848C482.165 258.958 483.202 259.971 484.646 260.878C484.893 261.034 485.216 261.099 485.458 260.936C486.207 260.433 486.939 259.944 487.637 259.478C489.429 258.284 489.679 255.713 488.419 253.968C486.957 251.94 485.608 249.524 484.401 246.792C483.8 245.432 483.251 244.026 482.759 242.599ZM556.711 220.302C556.239 216.601 554.433 211.441 551.769 206.061C546.272 194.959 538.991 186.614 536.071 187.781C533.248 188.909 533.985 196.94 538.045 206.315L538.412 207.146C543.062 217.471 549.71 225.108 554.679 225.274C556.468 225.334 557.167 223.873 556.711 220.302ZM450.626 262.638C450.755 262.568 450.925 262.595 451.002 262.72C451.983 264.302 452.861 265.673 453.662 266.867C455.232 269.205 454.675 272.511 452.268 273.973L446.041 277.755C443.151 279.51 439.333 278.264 437.982 275.164C436.823 272.506 437.953 269.504 440.503 268.123L450.626 262.638ZM481.597 278.777C482.089 278.6 482.322 278.037 482.105 277.562C481.376 275.964 480.764 274.364 480.269 272.762C479.678 270.847 477.082 270.107 475.412 271.214C474.463 271.842 474.312 272.77 474.64 273.86C474.958 274.915 475.371 276.15 475.748 277.147L476.948 280.237C477.011 280.402 477.197 280.482 477.36 280.414C478.449 279.96 479.582 279.516 480.753 279.084L481.597 278.777ZM480.379 264.355C481.385 263.677 481.389 262.197 480.534 261.337C479.932 260.732 479.419 260.091 478.991 259.417C477.644 257.296 477.29 255.486 477.275 252.751L477.274 252.727C477.274 252.62 477.167 252.546 477.067 252.584C475.584 253.159 473.814 254.201 471.59 255.771L471.215 256.038C470.157 256.796 467.143 259.099 464.713 260.956L464.712 260.957C463.361 261.989 462.19 262.884 461.636 263.299C461.554 263.36 461.505 263.458 461.506 263.56C461.536 268.312 462.748 270.507 464.982 271.578L465.162 271.661C465.701 271.899 466.085 272.019 467.183 272.32C467.225 272.331 467.27 272.332 467.312 272.317C468.436 271.932 469.722 271.299 471.252 270.402L471.833 270.053C473.121 269.251 476.577 266.92 480.379 264.355ZM433.177 272.09C433.311 272.018 433.478 272.076 433.536 272.216L433.651 272.488C435.204 276.172 436.819 279.82 438.651 283.798L438.945 284.436C439.186 284.958 439.012 285.583 438.485 285.813C438 286.024 437.508 286.173 437.138 286.223C437.064 286.23 436.991 286.201 436.944 286.144L436.842 286.021C435.457 284.317 433.85 281.42 432.689 278.54C432.07 277.006 431.629 275.599 431.431 274.518C431.35 274.077 431.313 273.707 431.316 273.426L431.324 273.241C431.325 273.233 431.325 273.226 431.326 273.219C431.326 273.198 431.342 273.152 431.36 273.14C431.607 272.97 432.239 272.6 433.177 272.09ZM453.604 268.732C453.038 268.156 452.112 268.147 451.535 268.712C450.521 269.707 449.099 270.634 446.616 272.012L444.09 273.415C443.422 273.795 442.876 274.123 442.381 274.444C441.967 274.712 441.597 274.971 441.265 275.228C440.626 275.722 440.508 276.64 441.002 277.28C441.496 277.919 442.415 278.037 443.054 277.543C443.318 277.339 443.623 277.125 443.973 276.898C444.296 276.689 444.651 276.471 445.062 276.231L445.867 275.77L448.434 274.348C450.9 272.964 452.386 271.976 453.584 270.801C454.16 270.235 454.169 269.309 453.604 268.732Z" fill="#00160A"/>
<path d="M431.744 410.037C425.13 414.419 421.635 422.369 423.901 429.973C434.142 464.332 459.351 489.481 490.597 495.937C497.019 497.264 508.138 497.438 519.652 495.948C534.487 494.028 548.925 489.624 561.623 482.486C596.503 463.739 622.971 425.479 626.401 391.987C628.913 367.465 621.523 344.5 607.21 326.305C602.029 319.719 592.851 318.446 585.349 322.18C565.156 332.232 525.291 352.297 502.538 365.237C482.829 376.446 449.023 398.589 431.744 410.037Z" fill="white"/>
<path d="M537.863 314.459C551.556 306.377 550.337 286.87 534.635 284.376C531.131 283.819 527.604 283.436 524.093 283.257C477.406 280.869 438.597 309.847 424.137 352.152C419.008 367.157 435.74 377.079 449.163 368.636C470.937 354.94 499.401 337.194 518.261 326.038C523.614 322.871 530.684 318.696 537.863 314.459Z" fill="white"/>
<path fill-rule="evenodd" clip-rule="evenodd" d="M691.241 264.637C691.042 274.807 680.28 291.733 662.982 310.887C650.451 324.762 635.87 338.174 623.643 347.212C623.181 347.55 622.964 348.13 623.089 348.689L623.387 350.015C626.361 363.045 630.242 377.21 628.776 391.495C625.217 426.166 598.098 465.281 562.261 484.5C549.19 491.832 534.334 496.354 519.094 498.322L517.641 498.502C506.278 499.84 495.404 499.618 488.759 498.248C462.966 492.93 441.129 474.9 427.927 448.806C427.86 448.675 427.699 448.607 427.571 448.678C425.865 449.631 423.695 450.653 422.678 450.999L419.752 451.987C388.219 462.593 356.959 471.466 344.188 465.928C339.327 463.82 337.665 459.766 339.698 454.318C341.674 449.025 347.152 442.203 356.344 433.714L356.849 433.249C365.528 425.294 384.762 410.78 414.553 389.708C414.753 389.567 414.877 389.337 414.882 389.092C416.344 326.291 465.127 278.415 526.444 282.323C542.749 283.362 556.167 288.535 564.296 292.558C566.378 293.587 568.83 293.613 570.876 292.515C601.647 276.062 626.336 264.497 645.173 257.575C676.152 246.191 691.472 251.514 691.241 264.637ZM646.182 264.321C611.542 277.05 556.797 305.679 480.576 351.73L478.26 353.131C418.908 389.06 379.607 416.356 358.826 435.406L357.802 436.351L356.83 437.262C341.23 452.001 338.465 460.258 345.352 463.245C357.141 468.357 388.8 459.738 419.804 449.569L422.678 448.621C425.299 447.753 427.083 447.235 428.228 446.977C428.349 446.949 428.461 446.896 428.571 446.84C428.941 446.653 429.352 446.638 429.714 446.764C429.75 446.777 429.8 446.79 429.837 446.802C429.915 446.828 429.969 446.879 430.037 446.924C430.243 447.06 430.418 447.249 430.537 447.485C443.353 472.817 464.472 488.254 489.349 493.383C495.807 494.714 506.702 494.909 518.038 493.507L518.719 493.421C533.608 491.498 548.109 489.084 560.854 481.935C595.874 463.154 622.407 424.883 625.866 391.196C627.291 377.31 625.587 363.67 620.965 350.917C620.706 350.203 619.839 349.937 619.212 350.365C618.489 350.858 618.698 350.138 619.841 348.204C619.994 347.945 620.09 347.655 620.248 347.399C620.402 347.148 620.615 346.935 620.772 346.686L620.949 346.405C621.251 345.931 621.625 345.507 622.054 345.145L623.14 344.229C639.48 330.409 652.037 318.642 660.811 308.926L661.812 307.811C678.047 289.644 688.138 273.597 688.305 264.583C688.487 254.695 675.442 253.569 646.182 264.321ZM499.303 449.301C503.228 461.296 497.291 469.011 486.839 469.41C477.182 469.778 468.389 463.693 468.837 455.046C469.224 447.573 474.341 439.584 480.641 436.65C488.26 433.102 495.411 437.406 499.303 449.301ZM482.185 439.965C477.143 442.312 472.808 449.082 472.489 455.236C472.171 461.364 478.945 466.052 486.7 465.756C494.807 465.446 498.969 460.039 495.828 450.438C492.557 440.443 487.585 437.45 482.185 439.965ZM579.097 424.859C584.104 434.321 582.793 443.617 575.093 447.784L575.018 447.823C574.925 447.872 574.84 447.935 574.766 448.009C564.44 458.233 551.541 459.474 543.129 452.063L542.841 451.804C533.151 442.928 535.46 427.678 550.878 415.723C560.801 408.03 572.921 413.189 579.097 424.859ZM552.799 418.2C538.801 429.053 536.833 442.05 544.958 449.493C550.785 454.83 559.394 455.126 567.435 449.945L567.543 449.873C567.561 449.861 567.556 449.833 567.534 449.828C566.977 449.681 566.53 449.232 566.404 448.647L566.379 448.498C566.277 447.638 566.891 446.859 567.751 446.757C569.716 446.524 571.423 446.049 572.87 445.37C573 445.306 573.119 445.22 573.22 445.116L573.307 445.026C574.25 444.032 575.172 442.952 576.065 441.783L576.361 441.39C576.696 440.941 577.225 440.723 577.745 440.765C577.77 440.768 577.793 440.756 577.805 440.734L577.807 440.731C579.684 437.02 579.239 431.992 576.491 426.64L576.326 426.325C570.956 416.177 560.918 411.905 552.799 418.2ZM646.008 305.725C645.203 308.586 642.751 312.514 638.993 317.164C632.958 324.633 624.131 333.23 616.052 339.583C615.818 339.767 615.542 339.464 615.742 339.244L615.908 339.062L-nan -nanL615.908 339.062C615.889 339.045 615.873 339.022 615.859 338.997L615.2 337.787C612.684 333.194 610 328.637 606.655 324.381C602.117 318.606 594.109 317.578 587.392 320.55C570.169 328.173 551.559 337.543 534.33 347.262L527.461 351.144C483.112 376.266 457.188 392.55 432.293 410.394C425.874 414.994 422.757 423.064 425.286 430.545C425.47 431.091 425.659 431.634 425.851 432.176C426.884 435.09 420.582 436.378 417.791 437.708C412.577 440.194 406.431 441.849 402.544 441.959C397.611 442.099 394.761 440.102 396.229 436.121C397.457 432.79 402.084 428.04 410.41 421.673L411.359 420.953L413.278 419.511C444.613 396.052 475.634 377.014 532.893 344.714L535.289 343.369C574.561 321.447 620.038 301.698 640.869 299.876C645.15 299.501 647.092 301.871 646.008 305.725ZM419.829 428.083C418.87 424.745 414.846 423.255 412.074 425.347L411.426 425.836C405.569 430.277 401.347 433.561 399.066 435.668L398.899 435.824C396.115 438.435 399.266 439.126 402.461 439.035C406.412 438.923 412.081 436.455 417.444 433.735C419.507 432.689 420.467 430.306 419.829 428.083ZM520.685 405C521.468 405.199 521.942 405.994 521.743 406.777C521.544 407.56 520.748 408.034 519.965 407.835C516.032 406.837 513.708 407.22 512.954 408.279C512.454 408.982 512.731 410.18 513.667 410.945C514.397 411.543 515.37 411.829 516.04 411.683C516.622 411.556 516.948 411.107 516.948 409.984C516.948 409.176 517.603 408.521 518.411 408.521C519.219 408.521 519.874 409.176 519.874 409.984C519.874 412.427 518.651 414.108 516.662 414.541C515.063 414.889 513.199 414.342 511.814 413.209C509.769 411.537 509.102 408.648 510.571 406.583C512.182 404.319 515.712 403.737 520.685 405ZM456.433 399.63C458.689 400.306 459.66 402.038 459.967 404.637L459.997 404.918L460.034 405.346C460.04 405.417 460.045 405.49 460.05 405.569L460.126 407.053L460.149 407.388C460.161 407.535 460.174 407.655 460.189 407.762L460.229 407.986L460.239 408.031C460.248 408.065 460.266 408.096 460.293 408.12C460.744 408.562 460.864 409.255 460.572 409.828L460.498 409.957C460.06 410.636 459.155 410.832 458.476 410.394C457.542 409.791 457.329 409.171 457.216 407.392L457.123 405.651C457.112 405.493 457.101 405.357 457.086 405.203C456.919 403.499 456.504 402.705 455.594 402.432C453.039 401.667 451.572 402.449 451.108 404.156C450.694 405.678 451.293 407.277 452.341 407.721L452.607 407.82C453.292 408.113 453.655 408.884 453.424 409.609C453.178 410.378 452.356 410.803 451.586 410.558C448.801 409.67 447.477 406.361 448.285 403.389C449.187 400.071 452.324 398.399 456.433 399.63ZM561.962 377.233C566.012 382.927 565.259 390.173 558.76 393.452C558.039 393.815 557.159 393.526 556.796 392.805C556.432 392.083 556.721 391.204 557.443 390.84C562.148 388.466 562.685 383.297 559.578 378.928C556.559 374.685 552.357 374.218 549.47 378.803C546.409 383.665 546.631 386.519 548.835 387.804C550.585 388.824 553.402 388.61 554.177 387.776L554.252 387.684C554.72 387.026 555.633 386.872 556.292 387.341C556.95 387.809 557.103 388.722 556.635 389.38C555.009 391.665 550.369 392.084 547.361 390.331C543.512 388.086 543.143 383.36 546.994 377.245C551.118 370.696 557.844 371.443 561.962 377.233ZM501.318 368.846C502.078 368.846 502.703 369.426 502.774 370.167L502.78 370.308C502.78 370.566 503.02 370.854 503.878 371.483L504.69 372.066C505.576 372.712 506.003 373.112 506.406 373.75C507.328 375.208 507.851 376.693 507.851 378.439C507.851 382.909 501.136 388.989 493.805 391.695C485.018 394.938 477.819 392.533 475.859 383.516C475.688 382.726 476.189 381.948 476.978 381.776C477.768 381.604 478.547 382.105 478.718 382.895C480.239 389.893 485.488 391.646 492.792 388.95C499.1 386.622 504.926 381.348 504.926 378.439C504.926 377.314 504.583 376.341 503.934 375.314L503.846 375.19C503.697 375.002 503.464 374.798 503.045 374.488L502.08 373.792C500.476 372.61 499.855 371.812 499.855 370.308C499.855 369.501 500.51 368.846 501.318 368.846ZM507.751 288.598C507.92 288.249 507.645 287.834 507.26 287.877C459.401 293.633 423.006 330.574 418.292 380.831C418.042 383.503 421.023 385.148 423.218 383.604C438.589 372.814 456.431 360.489 476.745 346.629L480.703 344.237C492.136 337.338 503.085 330.834 513.553 324.718C514.135 324.378 514.275 323.569 514.485 322.928C515.239 320.626 515.936 319.079 517.213 317.53C521.209 312.682 526.685 310.314 530.564 313.358C531.037 313.729 531.796 314.176 532.318 313.878L534.569 312.594C544.138 307.147 553.253 302.067 561.919 297.348C563.18 296.662 562.974 294.788 561.592 294.395C560.056 293.963 558.418 293.508 556.705 293.047C549.227 291.031 539.968 297.237 532.883 300.366C527.99 302.527 521.613 303.69 517.079 303.42C508.9 302.932 504.169 295.997 507.751 288.598ZM595.739 351.295C599.319 361.075 596.365 369.967 587.428 369.909C574.694 369.826 562.259 358.707 564.269 348.747C565.166 344.303 568.506 340.372 574.315 338.41C583.592 335.278 592.095 341.34 595.739 351.295ZM575.251 341.182C570.45 342.803 567.831 345.886 567.137 349.325C565.541 357.231 576.367 366.912 587.447 366.984C593.793 367.025 595.976 360.453 592.992 352.301C589.834 343.674 582.776 338.641 575.251 341.182ZM467.696 306.555L467.8 306.706L468.504 307.826C468.849 308.394 469.158 308.952 469.452 309.553C472.692 316.176 472.608 324.859 467.126 336.912C464.642 342.372 458.315 349.71 452.79 354.089C445.735 359.681 440.468 360.951 434.18 360.261L432.315 360.041L432.087 360.021C431.963 360.011 431.883 360.011 431.795 360.014L431.667 360.019C431.571 360.024 431.537 360.019 431.531 360.006C431.531 360.006 431.531 360.006 431.531 360.005C431.531 360.002 431.527 360.001 431.525 360.004L431.483 360.072C431.059 360.68 430.235 360.88 429.573 360.512C428.867 360.119 428.613 359.229 429.006 358.523C429.532 357.578 430.411 357.15 431.529 357.097C431.825 357.083 432.138 357.093 432.511 357.124L432.948 357.166L434.154 357.313C439.881 358.007 444.437 356.977 450.973 351.797C456.163 347.684 462.194 340.688 464.463 335.701C469.593 324.422 469.668 316.653 466.824 310.838C466.635 310.451 466.437 310.083 466.223 309.714L465.917 309.202L465.304 308.232C464.874 307.548 465.081 306.645 465.766 306.216C466.407 305.813 467.241 305.97 467.696 306.555ZM641.124 302.79C631.886 303.598 617.468 308.116 600.829 314.849C600.547 314.963 600.482 315.334 600.709 315.535C604.602 319.027 611.773 326.483 615.813 332.996C616.895 334.74 619.455 335.14 620.83 333.616C628.129 325.497 633.425 319.4 636.718 315.325L637.385 314.49C640.531 310.496 642.566 307.159 643.192 304.932L643.281 304.594C643.671 302.987 643.219 302.607 641.124 302.79ZM501.067 307.542C504.708 309.302 506.185 313.22 503.79 316.772C503.339 317.442 502.43 317.619 501.76 317.168C501.09 316.716 500.913 315.807 501.365 315.137C502.682 313.183 501.939 311.212 499.794 310.175C497.535 309.083 495.061 309.711 493.783 312.095C492.606 314.292 492.526 317.266 493.465 319.213C494.29 320.923 495.491 321.251 497.323 319.872C497.968 319.386 498.885 319.515 499.371 320.161C499.857 320.806 499.727 321.723 499.082 322.209C495.744 324.722 492.44 323.82 490.83 320.484C489.482 317.688 489.589 313.729 491.205 310.714C493.266 306.867 497.467 305.801 501.067 307.542ZM519.47 319.391C518.791 320.215 519.751 321.108 520.675 320.572C523.452 318.965 526.192 317.385 528.898 315.833C528.928 315.816 528.928 315.772 528.898 315.755L528.86 315.732L-nan -nanL528.86 315.732L528.758 315.659C526.524 313.907 522.587 315.609 519.47 319.391ZM513.233 287.326L512.091 287.406C512.003 287.412 511.922 287.455 511.868 287.524C506.811 293.914 508.759 299.101 515.664 299.837C520.624 300.366 533.789 296.687 535.333 295.395C538.613 292.652 535.761 288.235 531.517 287.713C529.71 287.491 527.959 287.33 526.295 287.244C522.311 287.041 518.382 287.046 514.518 287.25L513.233 287.326Z" fill="#00160A"/>
<path d="M645.295 264.683C676.273 253.3 675.563 256.677 646.304 267.429C611.747 280.128 481.534 359.537 480.909 359.918C480.889 359.93 480.896 359.926 480.877 359.938C421.553 395.846 417.125 390.296 474.642 355.34L478.189 353.189C478.857 352.785 544.352 311.448 591.153 289.333C596.42 286.844 641.768 265.979 645.295 264.683Z" fill="white"/>
<path fill-rule="evenodd" clip-rule="evenodd" d="M698.785 208.01C689.185 207.519 681.693 214.979 681.615 224.739C681.55 232.917 686.241 239.86 692.963 241.246C694.734 241.611 699.842 241.611 704.273 239.125L704.639 238.923C710.226 235.76 714.026 229.742 714.534 224.791C715.435 216.014 708.384 208.501 698.785 208.01ZM683.704 224.756C683.705 224.643 683.781 224.547 683.88 224.493C683.881 224.493 683.882 224.493 683.883 224.492C691.409 220.438 696.055 217.348 697.91 215.117C698.632 214.249 699.136 213.316 699.418 212.326C699.733 211.221 700.706 210.282 701.821 210.557C702.266 210.667 702.7 210.794 703.124 210.938C703.216 210.969 703.271 211.061 703.274 211.158C703.366 213.756 702.673 215.832 701.201 217.449C699.509 219.308 697.459 221.076 695.129 222.743C692.638 224.526 689.962 226.1 687.287 227.448C686.663 227.763 686.069 228.049 685.511 228.308L684.704 228.674C684.588 228.725 684.481 228.772 684.382 228.815C684.257 228.868 684.114 228.795 684.087 228.662C683.827 227.419 683.694 226.11 683.704 224.756ZM685.148 230.761C684.913 230.859 684.796 231.124 684.889 231.361C685.446 232.781 686.185 234.066 687.07 235.172C687.332 235.5 687.796 235.572 688.16 235.362C697.981 229.676 704.078 225.209 706.386 222.058C708.719 218.872 709.551 216.426 709.029 214.762C709.005 214.687 708.97 214.614 708.915 214.557C708.781 214.419 708.644 214.283 708.503 214.15C707.215 212.93 705.3 214.03 704.68 215.692C704.242 216.864 703.598 217.92 702.746 218.856C700.947 220.832 698.788 222.695 696.345 224.443C693.758 226.294 690.992 227.921 688.227 229.314C687.42 229.721 686.661 230.083 685.962 230.4L685.148 230.761ZM693.307 238.544C692.825 238.828 692.246 238.909 691.725 238.702C690.396 238.175 690.489 236.428 691.718 235.696C700.323 230.562 705.758 226.452 708.072 223.293C708.882 222.186 709.542 221.136 710.048 220.143C710.499 219.257 711.856 219.183 712.112 220.144C712.173 220.374 712.125 220.621 712.101 220.858C711.846 223.301 710.587 225.725 708.285 228.14C706.076 230.457 701.308 233.8 694.022 238.123L693.307 238.544ZM702.47 235.31C700.871 236.377 701.609 238.224 703.285 237.284C706.324 235.654 708.921 232.963 710.578 230.054C710.862 229.555 710.194 229.165 709.797 229.582C708.324 231.127 705.885 233.033 702.47 235.31ZM684.312 221.88C684.162 221.962 683.984 221.833 684.018 221.665C685.08 216.337 688.745 212.233 693.634 210.715C695.774 210.05 697.735 212.059 696.303 213.782C694.788 215.604 690.767 218.332 684.312 221.88Z" fill="#00160A"/>
<path fill-rule="evenodd" clip-rule="evenodd" d="M774.211 187.99C774.406 188.012 774.542 188.188 774.52 188.382C774.519 188.667 774.335 188.821 774.089 188.921C773.866 189.011 773.511 188.976 773.305 189.004C771.042 189.179 769.263 187.514 768.481 185.368C767.729 183.307 767.929 180.842 769.294 179.322C769.451 179.143 769.723 179.125 769.902 179.282C770.081 179.439 771.099 179.712 770.942 179.891C769.817 181.204 769.056 182.001 770.117 185.118C771.178 188.235 774.066 187.973 774.211 187.99Z" fill="#E7EAEE"/>
<path fill-rule="evenodd" clip-rule="evenodd" d="M413.955 210.306C413.361 209.898 412.548 210.049 412.14 210.644C411.731 211.238 411.882 212.051 412.477 212.46C413.371 213.073 413.396 214.374 412.626 215.138C412.601 215.163 412.576 215.188 412.551 215.213L411.396 216.386C410.888 216.898 410.892 217.725 411.404 218.233C411.916 218.741 412.743 218.737 413.251 218.225L414.636 216.824C415.521 215.962 417.027 216.01 417.544 217.133C417.734 217.547 417.812 217.932 417.82 218.316L417.82 218.535L417.827 218.669C417.894 219.327 418.45 219.841 419.126 219.841C419.848 219.841 420.432 219.256 420.432 218.535L420.432 218.278C420.423 217.766 420.347 217.262 420.185 216.755C419.766 215.437 420.209 213.861 421.591 213.789C422.311 213.751 422.864 213.137 422.827 212.417C422.789 211.696 422.175 211.143 421.455 211.181C420.509 211.23 419.665 211.331 418.891 211.491C417.422 211.795 415.833 211.631 414.609 210.762L413.955 210.306Z" fill="#00160A"/>
<path fill-rule="evenodd" clip-rule="evenodd" d="M609.643 496.475L610.549 496.48C615.612 496.527 619.569 496.983 627.021 498.179C627.875 498.316 628.457 499.12 628.32 499.975C628.182 500.83 627.378 501.411 626.524 501.274L624.082 500.89C617.916 499.943 614.363 499.61 609.643 499.61C593.264 499.61 582.809 509.862 584.578 525.587C584.675 526.447 584.056 527.222 583.196 527.319C582.336 527.416 581.561 526.797 581.464 525.937C579.474 508.252 591.484 496.475 609.643 496.475ZM622.327 502.803L622.174 502.669C622.027 502.542 621.799 502.56 621.675 502.708C621.546 502.857 621.566 503.08 621.713 503.207L621.871 503.341C622.018 503.468 622.241 503.451 622.37 503.302C622.494 503.154 622.479 502.93 622.327 502.803ZM593.928 506.081C593.366 505.629 592.544 505.719 592.092 506.281C590.268 508.551 588.938 510.763 588.108 512.922C587.302 515.022 587.026 518.551 587.236 523.596L587.286 524.662C587.324 525.382 587.939 525.935 588.659 525.898C589.379 525.86 589.933 525.245 589.895 524.525C589.617 519.254 589.854 515.663 590.547 513.859C591.272 511.97 592.464 509.987 594.128 507.917C594.58 507.355 594.49 506.533 593.928 506.081ZM608.181 501.76C608.821 501.428 609.609 501.679 609.941 502.319C610.273 502.959 610.023 503.748 609.382 504.079C606.73 505.453 604.704 507.757 603.292 511.041C601.777 514.566 600.537 517.711 599.572 520.475C599.335 521.156 598.59 521.515 597.909 521.278C597.228 521.04 596.869 520.296 597.106 519.615C598.092 516.788 599.354 513.587 600.892 510.01C602.534 506.192 604.967 503.425 608.181 501.76ZM615.773 501.691C615.298 501.149 614.473 501.094 613.93 501.57C611.75 503.48 610.076 505.217 608.903 506.792C607.74 508.356 606.377 510.695 604.799 513.825C604.475 514.469 604.734 515.254 605.378 515.579C606.022 515.903 606.807 515.644 607.132 515C608.647 511.994 609.941 509.772 610.999 508.351C612.048 506.942 613.6 505.332 615.652 503.534C616.194 503.059 616.249 502.234 615.773 501.691ZM611.005 516.44C610.463 516.915 609.637 516.861 609.162 516.318C608.687 515.776 608.741 514.951 609.284 514.475C611.336 512.678 612.888 511.068 613.937 509.658C614.994 508.237 616.288 506.016 617.804 503.009C618.128 502.365 618.914 502.106 619.558 502.431C620.202 502.756 620.461 503.541 620.136 504.185C618.559 507.314 617.196 509.653 616.032 511.218C614.86 512.793 613.185 514.53 611.005 516.44ZM601.117 502.825C600.524 502.415 599.71 502.564 599.3 503.157C596.381 507.386 594.516 510.545 593.692 512.691C592.865 514.844 592.293 517.748 591.961 521.417C591.897 522.135 592.426 522.77 593.145 522.835C593.863 522.9 594.498 522.37 594.563 521.652C594.875 518.203 595.402 515.523 596.13 513.627C596.809 511.861 598.391 509.136 600.863 505.498L601.45 504.642C601.86 504.048 601.711 503.235 601.117 502.825Z" fill="#00160A"/>
<path fill-rule="evenodd" clip-rule="evenodd" d="M576.325 495.123L576.349 495.177C576.905 496.411 577.975 497.338 579.277 497.712C579.387 497.744 579.452 497.86 579.42 497.97C579.41 498.005 579.391 498.036 579.366 498.061C578.373 499.05 577.839 500.41 577.894 501.81L577.895 501.846C577.899 501.961 577.81 502.058 577.694 502.063C577.655 502.064 577.617 502.055 577.583 502.035L575.818 501.03C575.763 500.999 575.697 500.994 575.638 501.018L573.75 501.767C573.643 501.81 573.522 501.758 573.479 501.65C573.465 501.614 573.461 501.574 573.468 501.536L573.474 501.501C573.723 500.122 573.383 498.701 572.537 497.583C572.468 497.491 572.486 497.36 572.578 497.291C572.606 497.269 572.639 497.255 572.675 497.25C574.015 497.062 575.205 496.292 575.926 495.147L575.958 495.098C576.019 495 576.148 494.971 576.246 495.032C576.281 495.054 576.308 495.086 576.325 495.123Z" fill="#00160A"/>
<path fill-rule="evenodd" clip-rule="evenodd" d="M648.996 215.137C649.354 215.455 649.778 215.963 650.19 216.545C650.438 216.895 650.895 217.035 651.287 216.861L652.093 216.516C652.255 216.442 652.36 216.384 652.392 216.337C652.485 216.164 652.699 216.098 652.874 216.19C653.044 216.282 653.113 216.496 653.02 216.669C652.956 216.833 652.503 217.347 651.663 217.851C651.4 218.008 651.285 218.337 651.416 218.613C651.603 219.009 651.748 219.382 651.829 219.699C652.002 220.361 651.864 220.831 651.637 220.996C651.414 221.159 650.855 221.189 650.004 220.483C649.847 220.363 649.822 220.141 649.941 219.986C650.06 219.831 650.282 219.803 650.439 219.922C650.512 219.976 650.585 220.019 650.656 220.055C650.754 220.105 650.859 220.012 650.832 219.905C650.806 219.814 650.775 219.719 650.732 219.627C650.435 218.978 649.676 218.721 648.986 218.901C648.647 218.989 648.293 219.061 647.927 219.111C647.528 219.164 647.122 219.175 646.699 219.171C646.457 219.187 646.246 219.003 646.23 218.76C646.214 218.517 646.399 218.307 646.641 218.291C647.626 218.196 648.535 217.947 649.338 217.668C649.473 217.619 649.528 217.458 649.449 217.338C649.06 216.754 648.655 216.236 648.303 215.928C648.087 215.737 648.065 215.404 648.254 215.186C648.448 214.967 648.779 214.946 648.996 215.137Z" fill="#00160A"/>
<path fill-rule="evenodd" clip-rule="evenodd" d="M421.232 493.012C419.865 493.086 417.701 493.408 415.937 494.088C414.429 494.671 414.66 510.992 419.865 512.353C425.046 514.127 430.652 511.924 429.855 503.182C429.84 502.999 429.685 502.501 429.507 501.929C429.246 501.093 428.936 500.099 428.948 499.713C429.036 497.332 427.318 494.949 425.197 493.788C424.155 493.218 422.846 492.927 421.232 493.012ZM420.708 508.391C419.385 507.401 418.735 504.576 418.812 501.996C418.92 498.351 422.756 497.783 424.211 501.17C424.929 502.84 424.973 505.343 423.919 506.778C423.35 507.552 422.694 508.165 422.085 508.734C421.873 508.933 421.55 508.97 421.301 508.806C421.107 508.679 420.909 508.54 420.708 508.391Z" fill="white"/>
<path fill-rule="evenodd" clip-rule="evenodd" d="M357.631 403.929C357.555 402.785 357.462 401.63 357.54 400.486C357.602 399.587 357.824 398.637 358.24 397.649C358.553 396.905 359.377 396.299 360.408 395.892C361.613 395.416 363.087 395.18 364.017 395.119C365.116 395.048 366.004 395.235 366.707 395.614C368.13 396.383 369.277 397.981 369.194 399.597C369.173 400.038 369.755 401.636 369.775 401.941C370.066 405.715 368.613 407.708 366.613 408.356C364.312 409.101 361.257 409.752 359.315 408.308C358.449 407.667 357.783 406.314 357.631 403.929ZM366.035 403.529C367.056 399.929 361.679 399.902 362.397 403.574C362.585 404.537 362.952 405.359 363.496 405.742C363.902 406.025 364.448 405.965 364.796 405.613C365.346 405.059 365.767 404.475 366.035 403.529Z" fill="#FFB61D"/>
<path fill-rule="evenodd" clip-rule="evenodd" d="M494.783 547.115C494.189 546.706 493.376 546.858 492.967 547.452C492.559 548.047 492.71 548.86 493.305 549.268C494.199 549.882 494.224 551.182 493.454 551.946C493.429 551.971 493.404 551.996 493.378 552.021L492.223 553.195C491.716 553.707 491.719 554.534 492.232 555.041C492.744 555.549 493.571 555.546 494.078 555.033L495.464 553.633C496.349 552.771 497.855 552.819 498.371 553.941C498.562 554.355 498.639 554.741 498.648 555.125L498.648 555.344L498.655 555.477C498.722 556.136 499.278 556.65 499.954 556.65C500.675 556.65 501.26 556.065 501.26 555.344L501.26 555.087C501.25 554.574 501.175 554.071 501.013 553.563C500.593 552.245 501.037 550.67 502.419 550.597C503.139 550.56 503.692 549.945 503.655 549.225C503.617 548.505 503.003 547.951 502.282 547.989C501.337 548.038 500.493 548.139 499.719 548.3C498.25 548.604 496.661 548.439 495.437 547.571L494.783 547.115Z" fill="#00160A"/>
<path fill-rule="evenodd" clip-rule="evenodd" d="M494.783 547.115C494.189 546.706 493.376 546.858 492.967 547.452C492.559 548.047 492.71 548.86 493.305 549.268C494.199 549.882 494.224 551.182 493.454 551.946C493.429 551.971 493.404 551.996 493.378 552.021L492.223 553.195C491.716 553.707 491.719 554.534 492.232 555.041C492.744 555.549 493.571 555.546 494.078 555.033L495.464 553.633C496.349 552.771 497.855 552.819 498.371 553.941C498.562 554.355 498.639 554.741 498.648 555.125L498.648 555.344L498.655 555.477C498.722 556.136 499.278 556.65 499.954 556.65C500.675 556.65 501.26 556.065 501.26 555.344L501.26 555.087C501.25 554.574 501.175 554.071 501.013 553.563C500.593 552.245 501.037 550.67 502.419 550.597C503.139 550.56 503.692 549.945 503.655 549.225C503.617 548.505 503.003 547.951 502.282 547.989C501.337 548.038 500.493 548.139 499.719 548.3C498.25 548.604 496.661 548.439 495.437 547.571L494.783 547.115Z" fill="#00160A"/>
<path fill-rule="evenodd" clip-rule="evenodd" d="M539.417 511.336L539.441 511.39C539.997 512.624 541.067 513.552 542.369 513.925C542.479 513.957 542.544 514.073 542.512 514.183C542.502 514.218 542.484 514.249 542.458 514.274C541.465 515.263 540.931 516.623 540.986 518.023L540.987 518.059C540.991 518.174 540.902 518.271 540.786 518.276C540.747 518.277 540.709 518.268 540.675 518.248L538.91 517.243C538.855 517.212 538.789 517.207 538.73 517.231L536.842 517.98C536.735 518.023 536.614 517.971 536.571 517.863C536.557 517.827 536.553 517.787 536.56 517.749L536.566 517.714C536.815 516.335 536.475 514.914 535.629 513.796C535.56 513.704 535.578 513.573 535.67 513.504C535.698 513.482 535.732 513.468 535.767 513.463C537.107 513.275 538.297 512.505 539.018 511.36L539.05 511.311C539.111 511.213 539.24 511.184 539.338 511.245C539.373 511.267 539.4 511.299 539.417 511.336Z" fill="#00160A"/>
<path fill-rule="evenodd" clip-rule="evenodd" d="M426.197 497.595L426.238 497.637C427.182 498.607 428.506 499.112 429.856 499.018C429.971 499.01 430.071 499.097 430.079 499.212C430.081 499.247 430.075 499.283 430.06 499.315C429.464 500.584 429.428 502.044 429.958 503.342L429.972 503.375C430.015 503.481 429.964 503.603 429.857 503.647C429.821 503.662 429.782 503.666 429.743 503.66L427.741 503.319C427.679 503.308 427.615 503.327 427.567 503.369L426.05 504.719C425.964 504.795 425.832 504.788 425.755 504.701C425.729 504.672 425.712 504.636 425.705 504.598L425.699 504.563C425.462 503.182 424.657 501.963 423.479 501.202C423.382 501.139 423.354 501.01 423.417 500.913C423.436 500.883 423.463 500.859 423.494 500.842C424.689 500.206 425.544 499.076 425.831 497.753L425.843 497.696C425.868 497.583 425.979 497.512 426.092 497.536C426.132 497.545 426.168 497.565 426.197 497.595Z" fill="#00160A"/>
<path fill-rule="evenodd" clip-rule="evenodd" d="M402.31 354.379L402.334 354.433C402.89 355.667 403.96 356.594 405.261 356.968C405.372 357 405.437 357.115 405.405 357.226C405.395 357.261 405.376 357.292 405.351 357.317C404.358 358.306 403.824 359.665 403.879 361.066L403.88 361.102C403.884 361.217 403.795 361.314 403.679 361.319C403.64 361.32 403.602 361.311 403.568 361.291L401.803 360.286C401.748 360.255 401.682 360.25 401.623 360.274L399.735 361.023C399.628 361.066 399.507 361.013 399.464 360.906C399.45 360.87 399.446 360.83 399.453 360.792L399.459 360.757C399.708 359.378 399.368 357.957 398.522 356.839C398.453 356.747 398.471 356.616 398.563 356.547C398.591 356.525 398.624 356.511 398.66 356.506C400 356.317 401.19 355.548 401.911 354.403L401.943 354.353C402.004 354.256 402.133 354.227 402.231 354.288C402.266 354.31 402.293 354.342 402.31 354.379Z" fill="#00160A"/>
<path fill-rule="evenodd" clip-rule="evenodd" d="M402.101 356.371L402.111 356.394C402.347 356.918 402.802 357.312 403.354 357.471C403.402 357.484 403.429 357.533 403.415 357.58C403.411 357.595 403.403 357.608 403.393 357.619C402.971 358.039 402.744 358.616 402.767 359.211L402.768 359.226C402.77 359.275 402.731 359.317 402.682 359.319C402.666 359.319 402.649 359.315 402.635 359.307L401.885 358.88C401.862 358.867 401.834 358.865 401.809 358.875L401.007 359.193C400.962 359.211 400.91 359.189 400.892 359.143C400.886 359.128 400.884 359.111 400.887 359.095L400.89 359.08C400.996 358.494 400.851 357.891 400.492 357.416C400.462 357.377 400.47 357.321 400.509 357.292C400.521 357.283 400.535 357.277 400.55 357.275C401.12 357.194 401.625 356.868 401.931 356.381L401.945 356.36C401.971 356.319 402.026 356.306 402.067 356.332C402.082 356.342 402.094 356.355 402.101 356.371Z" fill="#E7EAEE"/>
<path fill-rule="evenodd" clip-rule="evenodd" d="M295.325 442.123L295.349 442.177C295.905 443.411 296.975 444.338 298.277 444.712C298.387 444.744 298.452 444.86 298.42 444.97C298.41 445.005 298.391 445.036 298.366 445.061C297.373 446.05 296.839 447.41 296.894 448.81L296.895 448.846C296.899 448.961 296.81 449.058 296.694 449.063C296.655 449.064 296.617 449.055 296.583 449.035L294.818 448.03C294.763 447.999 294.697 447.994 294.638 448.018L292.75 448.767C292.643 448.81 292.522 448.758 292.479 448.65C292.465 448.614 292.461 448.574 292.468 448.536L292.474 448.501C292.723 447.122 292.383 445.701 291.537 444.583C291.468 444.491 291.486 444.36 291.578 444.291C291.606 444.269 291.639 444.255 291.675 444.25C293.015 444.062 294.205 443.292 294.926 442.147L294.958 442.098C295.019 442 295.148 441.971 295.246 442.032C295.281 442.054 295.308 442.086 295.325 442.123Z" fill="#00160A"/>
<path fill-rule="evenodd" clip-rule="evenodd" d="M385.747 262.545L386.4 263.001C386.476 263.055 386.572 263.13 386.685 263.222C389.071 265.171 392.258 265.67 395.335 265.509C396.055 265.471 396.67 266.025 396.707 266.745C396.745 267.465 396.192 268.08 395.471 268.117C394.089 268.19 393.646 269.765 394.066 271.084C394.228 271.591 394.303 272.094 394.313 272.607L394.313 272.863C394.313 273.585 393.728 274.169 393.007 274.169C392.331 274.169 391.775 273.656 391.708 272.997L391.701 272.863L391.701 272.645C391.692 272.261 391.615 271.876 391.424 271.462C390.908 270.339 389.402 270.291 388.517 271.153L387.131 272.553C386.624 273.065 385.797 273.069 385.284 272.561C384.772 272.054 384.769 271.227 385.276 270.714L386.431 269.541C387.368 268.605 387.703 267.184 386.818 266.199C385.432 264.657 383.636 263.311 383.931 262.882C384.339 262.288 385.152 262.137 385.747 262.545Z" fill="#00160A"/>
<path fill-rule="evenodd" clip-rule="evenodd" d="M637.721 413.161L637.769 413.196C638.867 413.987 640.258 414.255 641.572 413.928C641.684 413.9 641.797 413.968 641.825 414.08C641.834 414.114 641.833 414.15 641.824 414.185C641.458 415.538 641.675 416.983 642.423 418.168L642.442 418.198C642.504 418.296 642.474 418.425 642.377 418.486C642.344 418.507 642.306 418.518 642.267 418.519L640.236 418.531C640.173 418.531 640.113 418.56 640.073 418.61L638.814 420.203C638.742 420.293 638.611 420.309 638.52 420.237C638.49 420.213 638.466 420.18 638.453 420.144L638.441 420.11C637.967 418.791 636.963 417.731 635.671 417.186C635.565 417.141 635.515 417.018 635.56 416.912C635.574 416.879 635.596 416.851 635.624 416.829C636.69 415.995 637.336 414.734 637.388 413.381L637.39 413.323C637.395 413.207 637.492 413.118 637.607 413.122C637.648 413.124 637.688 413.137 637.721 413.161Z" fill="#00160A"/>
<path fill-rule="evenodd" clip-rule="evenodd" d="M658.16 331.311L658.175 331.368C658.508 332.68 659.401 333.779 660.618 334.373C660.721 334.424 660.764 334.549 660.714 334.652C660.698 334.684 660.675 334.712 660.645 334.732C659.495 335.534 658.733 336.78 658.544 338.169L658.539 338.204C658.524 338.318 658.418 338.398 658.304 338.383C658.265 338.377 658.229 338.361 658.199 338.337L656.635 337.04C656.587 337 656.522 336.984 656.46 336.997L654.471 337.407C654.358 337.43 654.248 337.358 654.224 337.245C654.216 337.207 654.219 337.167 654.233 337.13L654.245 337.097C654.73 335.782 654.642 334.324 654.003 333.076C653.95 332.973 653.991 332.847 654.094 332.795C654.125 332.779 654.161 332.771 654.196 332.772C655.549 332.819 656.854 332.268 657.764 331.265L657.803 331.222C657.881 331.137 658.013 331.13 658.098 331.208C658.129 331.235 658.15 331.271 658.16 331.311Z" fill="#00160A"/>
<path fill-rule="evenodd" clip-rule="evenodd" d="M611.616 245.757L611.63 245.814C611.963 247.126 612.856 248.225 614.073 248.819C614.176 248.869 614.219 248.994 614.169 249.098C614.153 249.13 614.13 249.158 614.1 249.178C612.95 249.979 612.188 251.226 611.999 252.615L611.994 252.65C611.979 252.764 611.873 252.844 611.759 252.829C611.72 252.823 611.684 252.807 611.654 252.782L610.091 251.486C610.042 251.446 609.977 251.43 609.915 251.442L607.926 251.853C607.813 251.876 607.703 251.804 607.679 251.691C607.671 251.652 607.674 251.613 607.688 251.576L607.7 251.543C608.185 250.228 608.097 248.769 607.458 247.522C607.405 247.419 607.446 247.293 607.549 247.241C607.58 247.224 607.616 247.216 607.651 247.218C609.004 247.265 610.309 246.714 611.219 245.711L611.258 245.668C611.336 245.582 611.468 245.576 611.553 245.653C611.584 245.681 611.605 245.717 611.616 245.757Z" fill="#00160A"/>
<path fill-rule="evenodd" clip-rule="evenodd" d="M749.122 266.586L749.916 266.515C751.412 266.393 752.736 265.497 753.666 264.319C754.155 263.699 754.737 263.08 755.428 262.435C755.956 261.943 756.782 261.972 757.274 262.5C757.766 263.028 757.737 263.854 757.209 264.346C756.197 265.29 756.87 266.782 758.04 267.522C758.49 267.806 758.871 268.143 759.207 268.53L759.373 268.726C759.836 269.279 759.764 270.103 759.212 270.566C758.694 271.001 757.937 270.965 757.463 270.503L757.372 270.405L757.231 270.238C756.978 269.949 756.671 269.704 756.259 269.509C755.142 268.981 753.957 269.912 753.833 271.141L753.672 273.105C753.612 273.824 752.981 274.358 752.262 274.298C751.543 274.239 751.009 273.607 751.069 272.889L751.2 271.248C751.203 271.212 751.206 271.177 751.209 271.142C751.308 270.062 750.453 269.081 749.373 269.186C748.655 269.255 748.017 268.729 747.948 268.011C747.878 267.294 748.404 266.655 749.122 266.586Z" fill="#00160A"/>
<path fill-rule="evenodd" clip-rule="evenodd" d="M643.664 356.737C643.488 357.182 643.156 357.754 642.75 358.341C642.506 358.693 642.53 359.171 642.828 359.48L643.428 360.119L643.561 360.247C643.619 360.299 643.665 360.33 643.698 360.339C643.893 360.367 644.028 360.546 644.001 360.741C643.973 360.932 643.795 361.07 643.601 361.042C643.425 361.038 642.787 360.789 642.027 360.171C641.789 359.978 641.441 359.982 641.226 360.2C640.918 360.512 640.617 360.775 640.347 360.96C639.783 361.349 639.295 361.38 639.062 361.222C638.833 361.069 638.613 360.554 638.986 359.513C639.044 359.324 639.245 359.225 639.431 359.284C639.617 359.343 639.72 359.541 639.661 359.729C639.636 359.817 639.62 359.9 639.61 359.979C639.597 360.089 639.721 360.155 639.812 360.093C639.889 360.038 639.967 359.977 640.039 359.904C640.547 359.404 640.529 358.603 640.124 358.015C639.926 357.727 639.736 357.419 639.565 357.092C639.378 356.735 639.229 356.357 639.088 355.959C638.99 355.737 639.091 355.476 639.314 355.377C639.537 355.279 639.798 355.381 639.896 355.603C640.322 356.496 640.866 357.266 641.404 357.925C641.495 358.035 641.666 358.031 641.751 357.916C642.167 357.35 642.515 356.793 642.684 356.357C642.79 356.088 643.095 355.954 643.364 356.057C643.636 356.164 643.77 356.468 643.664 356.737Z" fill="#E7EAEE"/>
<path fill-rule="evenodd" clip-rule="evenodd" d="M630.913 90.5761C631.709 90.4375 632.466 90.9703 632.605 91.7661C632.743 92.562 632.211 93.3195 631.415 93.4581C627.63 94.1174 623.074 96.3799 619.139 100.024C614.029 104.756 610.259 111.434 608.398 120.152C606.898 127.176 608.276 136.423 612.195 144.138C616.654 152.916 623.822 158.884 633.019 160.564C642.46 162.288 650.448 161.217 659.37 158.045L660.191 157.747C660.452 157.649 660.917 157.469 661.501 157.244L661.502 157.243C663.65 156.415 667.405 154.966 668.482 154.64C671.367 153.768 673.334 153.841 674.761 155.361C675.314 155.95 675.284 156.876 674.695 157.429C674.143 157.947 673.295 157.954 672.735 157.467L672.628 157.363C672.207 156.915 671.337 156.863 669.585 157.365L669.329 157.44C668.379 157.728 664.902 159.068 662.735 159.904L662.734 159.904L662.734 159.904L662.734 159.904C661.894 160.228 661.251 160.476 661.028 160.558C651.391 164.075 642.744 165.314 632.493 163.441C622.335 161.586 614.437 155.01 609.587 145.463C605.373 137.167 603.894 127.239 605.537 119.541C607.523 110.237 611.596 103.021 617.151 97.8775C621.5 93.851 626.571 91.3325 630.913 90.5761ZM640.805 97.6424C641.598 97.4872 642.366 98.004 642.522 98.7968C642.677 99.5895 642.16 100.358 641.367 100.513C629.512 102.835 619.979 111.89 617.213 123.867C616.278 127.92 616.561 131.216 617.479 132.474L617.6 132.63C617.6 132.631 617.601 132.632 617.602 132.633L617.602 132.634C617.606 132.644 617.619 132.647 617.628 132.64C617.957 132.343 618.341 131.585 618.639 130.41L618.702 130.152C621.545 117.834 630.937 108.299 642.932 105.097C643.712 104.888 644.514 105.352 644.722 106.132C644.931 106.913 644.467 107.715 643.686 107.923C632.879 110.808 624.389 119.316 621.664 130.342L621.552 130.81C620.549 135.154 617.669 137.228 615.336 134.478C613.63 132.467 613.211 128.199 614.363 123.209C617.39 110.097 627.828 100.184 640.805 97.6424ZM658.397 113.697C658.339 112.891 657.64 112.285 656.834 112.342C642.598 113.358 630.113 122.604 625.146 136.252C623.261 141.43 623.149 146.035 624.692 148.384C626.762 151.534 630.018 149.747 631.641 145.287L631.812 144.829C636.205 133.279 646.498 125.213 658.548 123.531C659.349 123.419 659.907 122.68 659.795 121.88C659.683 121.08 658.944 120.522 658.144 120.634C644.873 122.486 633.559 131.465 628.892 144.286L628.789 144.56C628.271 145.895 627.702 146.699 627.272 146.935L627.253 146.948C627.249 146.951 627.247 146.953 627.245 146.955C627.242 146.958 627.24 146.96 627.238 146.959C627.236 146.959 627.234 146.955 627.23 146.945C627.221 146.924 627.2 146.874 627.137 146.777L627.059 146.65C626.21 145.145 626.34 141.524 627.895 137.252C632.464 124.699 643.947 116.194 657.042 115.26C657.848 115.203 658.454 114.503 658.397 113.697ZM664.767 127.916C665.573 127.859 666.273 128.466 666.33 129.271C666.388 130.077 665.781 130.777 664.976 130.834C655.794 131.489 647.743 137.452 644.54 146.253C643.59 148.862 643.414 151.093 643.753 152.223L643.759 152.241C643.774 152.285 643.833 152.294 643.86 152.256C644.023 152.008 644.207 151.652 644.387 151.191L644.464 150.986C647.848 141.69 656.052 135.179 665.674 133.836C666.474 133.724 667.213 134.283 667.325 135.083C667.437 135.883 666.879 136.622 666.079 136.733C657.661 137.908 650.467 143.526 647.367 151.576L647.213 151.987C645.959 155.434 643.245 156.924 641.51 154.284C640.322 152.475 640.405 149.06 641.791 145.253C645.392 135.357 654.445 128.653 664.767 127.916ZM672.476 139.702C672.419 138.896 671.719 138.289 670.913 138.347C664 138.84 657.938 143.33 655.526 149.957C654.575 152.57 654.517 154.948 655.397 156.286C656.839 158.481 659.08 157.252 660.013 154.687L660.141 154.35C662.105 149.331 666.608 145.832 671.873 145.098C672.673 144.986 673.231 144.247 673.12 143.447C673.008 142.647 672.269 142.089 671.469 142.2L671.098 142.256C665.431 143.169 660.541 146.766 658.006 151.943C657.995 151.965 657.962 151.953 657.968 151.93L657.972 151.918C658.053 151.612 658.153 151.291 658.275 150.958C660.288 145.425 665.349 141.676 671.121 141.265C671.927 141.207 672.534 140.507 672.476 139.702Z" fill="#00160A"/>
<path fill-rule="evenodd" clip-rule="evenodd" d="M664.767 127.916C665.573 127.859 666.273 128.466 666.33 129.271C666.388 130.077 665.781 130.777 664.976 130.834C655.794 131.489 647.743 137.452 644.54 146.253C643.59 148.862 643.414 151.093 643.753 152.223L643.759 152.241C643.774 152.285 643.833 152.294 643.86 152.256C644.023 152.008 644.207 151.652 644.387 151.191L644.464 150.986C647.848 141.69 656.052 135.179 665.674 133.836C666.474 133.724 667.213 134.283 667.325 135.083C667.437 135.883 666.879 136.622 666.079 136.733C657.661 137.908 650.467 143.526 647.367 151.576L647.213 151.987C645.959 155.434 643.245 156.924 641.51 154.284C640.322 152.475 640.405 149.06 641.791 145.253C645.392 135.357 654.445 128.653 664.767 127.916Z" fill="#00160A"/>
<path d="M573.673 318.355C604.338 304.012 629.976 296.435 645.938 295.044C650.826 294.618 653.044 297.313 651.806 301.697C650.886 304.951 648.087 309.418 643.797 314.708C636.317 323.928 626.456 331.819 616.635 339.158C632.346 324.656 636.354 318.59 641.199 312.616L641.96 311.666C645.553 307.123 647.875 303.328 648.591 300.795L648.692 300.411C649.138 298.583 648.622 298.15 646.229 298.359C630.628 299.718 605.088 307.31 574.535 321.634C543.933 335.981 543.058 332.675 573.673 318.355Z" fill="white"/>
<path d="M433.177 272.09C433.311 272.018 433.478 272.076 433.536 272.216L433.651 272.488C435.204 276.172 436.819 279.82 438.651 283.798L438.945 284.436C439.186 284.958 439.012 285.582 438.485 285.813C438 286.024 437.508 286.173 437.138 286.223C437.064 286.23 436.991 286.201 436.944 286.144L436.842 286.021C435.457 284.317 433.85 281.42 432.689 278.54C432.07 277.006 431.629 275.599 431.431 274.518C431.35 274.077 431.313 273.707 431.316 273.426L431.324 273.241C431.325 273.233 431.325 273.226 431.326 273.219C431.326 273.198 431.342 273.152 431.36 273.14C431.607 272.97 432.239 272.6 433.177 272.09Z" fill="white"/>
<path fill-rule="evenodd" clip-rule="evenodd" d="M472.191 258.611C473.151 257.436 474.396 257.611 475.972 258.568L476.377 258.823L477.51 259.574C477.827 259.777 477.965 259.848 478.149 259.921C478.578 260.092 478.788 260.578 478.617 261.007C478.446 261.436 477.96 261.645 477.531 261.474L477.378 261.411C477.089 261.287 476.87 261.158 476.282 260.769L475.469 260.227C475.335 260.139 475.219 260.066 475.105 259.997C474.162 259.425 473.734 259.365 473.486 259.669C473.329 259.86 473.368 260.269 473.679 261.106L474.02 261.985C474.698 263.784 474.702 264.589 473.494 265.276C472.455 265.867 471.921 265.591 470.428 264.128L470.066 263.769C469.11 262.814 468.609 262.482 468.286 262.55C468.179 262.573 468.054 262.649 467.901 262.811C467.722 263.002 467.671 263.613 467.781 264.696L467.949 266.111C468.146 267.84 468.067 268.288 467.353 268.766C466.37 269.424 465.061 268.681 462.637 266.503C462.293 266.195 462.265 265.666 462.573 265.323C462.882 264.979 463.41 264.951 463.754 265.259C464.79 266.19 465.573 266.796 466.12 267.107L466.242 267.174L466.251 267.178C466.294 267.2 466.346 267.169 466.347 267.12L466.34 266.87C466.329 266.665 466.304 266.417 466.253 265.996L466.146 265.127C465.943 263.367 466.006 262.388 466.682 261.668C467.057 261.268 467.478 261.012 467.94 260.914C469.014 260.687 469.776 261.146 471.043 262.384L471.682 263.013C472.372 263.676 472.627 263.845 472.668 263.822C472.824 263.733 472.8 263.457 472.377 262.369L472.192 261.898C471.601 260.381 471.488 259.472 472.191 258.611Z" fill="#00160A"/>
<path fill-rule="evenodd" clip-rule="evenodd" d="M563.439 122.567L562.645 122.638C561.927 122.707 561.402 123.346 561.471 124.063C561.507 124.437 561.697 124.758 561.973 124.971C562.035 125.02 562.04 125.118 561.975 125.164C561.386 125.58 561.246 126.395 561.662 126.984C562.079 127.573 562.893 127.713 563.482 127.297L564.042 126.9C564.341 126.688 564.755 126.934 564.723 127.3L564.592 128.941C564.533 129.659 565.067 130.29 565.786 130.35C566.505 130.41 567.136 129.876 567.195 129.157L567.357 127.193C567.395 126.807 567.856 126.743 567.937 127.122C568.017 127.501 568.018 127.846 567.967 128.18L567.929 128.396L567.912 128.528C567.864 129.189 568.322 129.791 568.988 129.909C569.698 130.034 570.376 129.56 570.501 128.849L570.545 128.596C570.654 127.909 570.639 127.217 570.458 126.479C570.409 126.282 570.621 126.138 570.755 126.29L570.895 126.457L570.986 126.555C571.461 127.017 572.217 127.053 572.735 126.618C573.288 126.155 573.36 125.331 572.896 124.778L572.731 124.582C572.668 124.51 572.723 124.386 572.817 124.372C573.384 124.289 573.848 123.836 573.922 123.24C574.01 122.524 573.501 121.872 572.785 121.784C572.256 121.719 571.756 121.676 571.279 121.654C570.622 121.625 570.252 120.846 570.733 120.398C571.26 119.906 571.289 119.08 570.798 118.552C570.306 118.024 569.479 117.995 568.952 118.487C568.357 119.042 567.843 119.578 567.4 120.111C567.075 120.503 566.474 120.546 566.116 120.183L565.552 119.621C565.037 119.116 564.21 119.123 563.705 119.638C563.199 120.152 563.207 120.979 563.722 121.485C563.753 121.515 563.784 121.545 563.814 121.576C564.169 121.925 563.936 122.527 563.439 122.567Z" fill="#00160A"/>
<path fill-rule="evenodd" clip-rule="evenodd" d="M513.109 131.616C512.795 131.294 512.288 131.303 511.975 131.636C511.662 131.968 511.663 132.498 511.976 132.82C512.375 133.229 512.23 133.91 511.734 134.195C511.569 134.29 511.402 134.391 511.23 134.499L510.412 135.025C510.052 135.254 509.974 135.712 510.236 136.048C510.499 136.384 511.004 136.471 511.363 136.242L512.345 135.616C513.159 135.117 514.294 135.395 514.516 136.323C514.583 136.601 514.586 136.85 514.549 137.091L514.524 137.23L514.514 137.315C514.481 137.738 514.759 138.123 515.167 138.194C515.603 138.271 516.021 137.964 516.101 137.508L516.13 137.345C516.206 136.862 516.192 136.376 516.053 135.851C515.894 135.256 516.271 134.605 516.882 134.683C517.325 134.739 517.722 134.459 517.77 134.056C517.817 133.653 517.496 133.28 517.054 133.224C516.732 133.183 516.428 133.154 516.139 133.137C515.135 133.079 514.143 132.704 513.453 131.974L513.109 131.616Z" fill="#E7EAEE"/>
<path fill-rule="evenodd" clip-rule="evenodd" d="M344.808 349.336L344.832 349.39C345.387 350.624 346.458 351.552 347.759 351.925C347.87 351.957 347.934 352.073 347.902 352.183C347.893 352.218 347.874 352.249 347.849 352.274C346.856 353.263 346.322 354.623 346.376 356.023L346.378 356.059C346.382 356.174 346.292 356.271 346.177 356.276C346.138 356.277 346.099 356.268 346.066 356.248L344.301 355.243C344.246 355.212 344.179 355.207 344.12 355.231L342.233 355.98C342.126 356.023 342.004 355.971 341.962 355.863C341.947 355.827 341.943 355.787 341.95 355.749L341.957 355.714C342.206 354.335 341.866 352.914 341.02 351.796C340.95 351.704 340.968 351.573 341.061 351.504C341.089 351.482 341.122 351.468 341.157 351.463C342.498 351.275 343.687 350.505 344.409 349.36L344.441 349.311C344.502 349.213 344.631 349.184 344.729 349.245C344.763 349.267 344.791 349.299 344.808 349.336Z" fill="#00160A"/>
<path fill-rule="evenodd" clip-rule="evenodd" d="M356.808 238.336L356.832 238.39C357.387 239.624 358.458 240.552 359.759 240.925C359.87 240.957 359.934 241.073 359.902 241.183C359.893 241.218 359.874 241.249 359.849 241.274C358.856 242.263 358.322 243.623 358.376 245.023L358.378 245.059C358.382 245.174 358.292 245.271 358.177 245.276C358.138 245.277 358.099 245.268 358.066 245.248L356.301 244.243C356.246 244.212 356.179 244.207 356.12 244.231L354.233 244.98C354.126 245.023 354.004 244.971 353.962 244.863C353.947 244.827 353.943 244.787 353.95 244.749L353.957 244.714C354.206 243.335 353.866 241.914 353.02 240.796C352.95 240.704 352.968 240.573 353.061 240.504C353.089 240.482 353.122 240.468 353.157 240.463C354.498 240.275 355.687 239.505 356.409 238.36L356.441 238.311C356.502 238.213 356.631 238.184 356.729 238.245C356.763 238.267 356.791 238.299 356.808 238.336Z" fill="#00160A"/>
<path d="M383.99 415.061C384.66 414.574 385.598 414.723 386.085 415.393C386.572 416.064 365.35 433.349 357.118 441.27L356.161 442.198C351.459 446.799 347.992 450.783 346.038 453.932C343.967 457.27 343.834 459.082 345.171 459.823C350.243 462.634 357.536 464.004 367.981 462.274L369.054 462.091C373.03 461.394 402.936 454.872 402.463 455.045L402.279 455.1C401.336 455.35 389.158 459.561 384.955 460.631L384.447 460.76C378.022 462.376 372.994 463.484 368.471 464.233C357.418 466.064 349.522 465.664 343.717 462.447C340.368 460.591 340.634 456.951 343.489 452.351C345.734 448.732 349.683 444.261 355.038 439.108C363.38 431.081 375.114 421.506 383.99 415.061Z" fill="white"/>
</g>
<defs>
<filter id="filter0_di_8_642" x="0.137085" y="0" width="1071.72" height="829" filterUnits="userSpaceOnUse" color-interpolation-filters="sRGB">
<feFlood flood-opacity="0" result="BackgroundImageFix"/>
<feColorMatrix in="SourceAlpha" type="matrix" values="0 0 0 0 0 0 0 0 0 0 0 0 0 0 0 0 0 0 127 0" result="hardAlpha"/>
<feOffset dy="8"/>
<feGaussianBlur stdDeviation="5"/>
<feComposite in2="hardAlpha" operator="out"/>
<feColorMatrix type="matrix" values="0 0 0 0 0 0 0 0 0 0 0 0 0 0 0 0 0 0 0.25 0"/>
<feBlend mode="normal" in2="BackgroundImageFix" result="effect1_dropShadow_8_642"/>
<feBlend mode="normal" in="SourceGraphic" in2="effect1_dropShadow_8_642" result="shape"/>
<feColorMatrix in="SourceAlpha" type="matrix" values="0 0 0 0 0 0 0 0 0 0 0 0 0 0 0 0 0 0 127 0" result="hardAlpha"/>
<feOffset dx="10" dy="8"/>
<feGaussianBlur stdDeviation="5"/>
<feComposite in2="hardAlpha" operator="arithmetic" k2="-1" k3="1"/>
<feColorMatrix type="matrix" values="0 0 0 0 0 0 0 0 0 0 0 0 0 0 0 0 0 0 0.25 0"/>
<feBlend mode="normal" in2="shape" result="effect2_innerShadow_8_642"/>
</filter>
</defs>
</svg>
