<svg width="634" height="458" viewBox="0 0 634 458" fill="none" xmlns="http://www.w3.org/2000/svg">
<g opacity="0.6">
<path d="M423.888 364.123C457.427 368.213 486.202 388.896 509.883 391.729C536.201 394.878 576.003 377.586 616.592 397.938C627.039 403.177 635.618 409.472 632.421 417.296C626.851 430.931 615.13 436.273 589.452 439.978L586.714 440.357C566.864 442.997 545.53 443.636 491.447 443.993L472.967 444.133C407.04 444.707 368.915 447.794 319.544 451.738L314.512 452.146C223.597 459.627 151.028 458.428 96.8024 450.136L95.1649 449.882C51.3547 443.02 25.0151 431.669 12.1576 418.79C4.58844 411.209 0.228394 404.14 0.00335693 396.584C-0.22168 389.028 10.942 380.722 17.2978 377.586C35.0032 368.85 40.7803 365.682 74.8184 361.209C89.4741 359.283 111.431 359.437 136.811 358.58C227.858 355.506 368.512 357.371 423.888 364.123Z" fill="white"/>
<path fill-rule="evenodd" clip-rule="evenodd" d="M379.334 321.66C335.874 420.39 178.597 417.21 69.1623 349.824C48.2624 336.955 -23.5799 276.297 47.1299 240.876C117.84 205.456 95.1912 151.05 152.256 86.1593C218.25 11.1159 341.146 -27.3732 427.578 73.5943C647.258 330.218 393.969 288.415 379.334 321.66Z" fill="#662EDC"/>
<path fill-rule="evenodd" clip-rule="evenodd" d="M105.458 70.8269C100.805 63.3501 96.142 60.4812 91.5553 62.9628C87.6723 65.0636 87.0265 70.6748 89.0925 79.6517L87.8544 80.3193C86.153 81.2368 85.5175 83.3598 86.4349 85.0612C86.5143 85.2083 86.6041 85.3496 86.7036 85.4839L87.3672 86.3718C97.0536 99.2212 104.729 104.484 110.718 101.59C115.751 99.1575 116.601 88.7967 114.012 70.0481C113.83 68.7351 112.66 67.8019 111.357 67.8965L111.193 67.9137C110.897 67.9545 110.611 68.048 110.349 68.1897L105.458 70.8269ZM91.7237 77.6391L102.523 71.7967L102.497 71.757C98.7839 65.9974 95.6377 64.165 92.9828 65.6014L92.8609 65.6715C90.9006 66.868 90.3573 70.6268 91.6059 77.0513L91.7237 77.6391ZM111.136 71.173L89.2783 82.9599C89.0352 83.091 88.9444 83.3943 89.0755 83.6373C89.0868 83.6583 89.0996 83.6785 89.1139 83.6977L89.7577 84.5591C98.6114 96.3032 105.27 100.89 109.412 98.8888C112.559 97.3681 113.385 88.1319 111.196 71.6097L111.136 71.173ZM106.67 90.0715C107.184 89.5329 107.5 88.8033 107.5 88C107.5 86.3431 106.157 85 104.5 85C102.843 85 101.5 86.3431 101.5 88C101.5 89.6569 102.843 91 104.5 91C104.63 91 104.759 90.9917 104.885 90.9755L106.59 94.1062L106.652 94.2053C106.941 94.6145 107.497 94.7513 107.947 94.5059C108.432 94.2417 108.611 93.6344 108.347 93.1494L106.67 90.0715Z" fill="#FFB61D"/>
<path fill-rule="evenodd" clip-rule="evenodd" d="M423.888 364.123C457.427 368.213 486.202 388.896 509.883 391.729C536.201 394.878 576.003 377.586 616.592 397.938C627.039 403.177 635.618 409.472 632.421 417.296C626.851 430.931 615.13 436.273 589.452 439.978L586.714 440.357C566.864 442.997 545.53 443.636 491.447 443.993L472.967 444.133C407.04 444.707 368.915 447.794 319.544 451.738L314.512 452.146C223.597 459.627 151.028 458.428 96.8024 450.136L95.1649 449.882C51.3547 443.02 25.0151 431.669 12.1576 418.79C4.58844 411.209 0.228394 404.14 0.00335693 396.584C-0.22168 389.028 10.942 380.722 17.2978 377.586C35.0032 368.85 40.7803 365.682 74.8184 361.209C89.4741 359.283 111.431 359.437 136.811 358.58C227.858 355.506 368.512 357.371 423.888 364.123ZM74.0669 367.538L71.8362 367.835C40.1163 372.136 19.8394 379.962 10.2338 387.764L9.63434 388.265C2.25867 394.621 1.56915 401.766 12.1711 412.329C23.7633 423.878 53.3293 436.908 95.9605 443.55C149.332 451.866 221.086 454.281 311.197 447.049L320.644 446.288C372.667 442.198 412.582 440.021 486.453 439.502L506.845 439.35C550.825 438.952 569.518 438.165 587.564 435.657L589.28 435.41C668.966 419.823 611.468 391.856 578.479 391.729C550.228 391.62 516.295 399.567 506.845 396.593C477.062 387.218 461.769 372.864 423.888 368.271L412.873 366.951L403.47 366.507C249.359 359.348 139.528 358.982 74.0669 367.538Z" fill="#00160A"/>
<path d="M173.877 5.37786C173.329 5.36024 172.782 5.36084 172.234 5.37966C158.749 5.8434 148.163 17.0433 148.407 30.4927L148.418 30.9009L148.583 35.9405C149.057 51.0778 149.318 66.1553 149.365 81.1729L149.446 127.38C149.465 144.011 149.454 159.02 149.406 173.719L149.339 189.307C149.077 238.934 148.37 273.764 147.058 288.925L146.804 291.76C145.221 310.289 144.893 336.902 145.832 371.537C145.843 371.938 145.863 372.338 145.893 372.737C146.93 386.78 159.043 397.357 173.055 396.549L173.48 396.521L178.136 396.183C221.663 393.077 265.189 391.524 308.717 391.524C351.321 391.524 394.252 393.012 437.51 395.987C438.761 396.073 440.016 396.081 441.269 396.01C457.67 395.082 470.252 381.166 469.592 364.808L469.568 364.311L469.24 358.412C466.337 305.267 464.833 252.123 464.729 198.978L464.724 193.073C464.724 154.338 466.538 101.215 470.164 33.6794C470.205 32.9228 470.213 32.1648 470.19 31.4075C469.734 16.7474 457.598 5.20111 442.987 5.41831L442.543 5.4285L420.428 6.09903C370.183 7.581 333.597 8.35537 310.646 8.42198L306.713 8.42638L302.666 8.41589C279.238 8.31528 242.97 7.51183 193.839 6.0057L173.877 5.37786Z" fill="white"/>
<path fill-rule="evenodd" clip-rule="evenodd" d="M440.83 4.0001C439.058 4.97078 436.724 5.65358 433.826 6.04755C441.285 6.7101 447.148 6.55551 451.419 5.58424L450.495 5.46996C447.488 5.09027 444.267 4.60031 440.83 4.0001Z" fill="#E7EAEE"/>
<path fill-rule="evenodd" clip-rule="evenodd" d="M160.304 361.618L160.511 361.626C161.8 361.716 162.709 362.722 162.591 363.833C162.455 365.106 161.096 366.34 159.612 366.442C158.432 366.523 157.613 365.615 157.744 364.206C157.881 362.729 159.039 361.624 160.304 361.618Z" fill="#E7EAEE"/>
<path fill-rule="evenodd" clip-rule="evenodd" d="M183.91 380.933L184.118 380.941C185.407 381.03 186.316 382.037 186.197 383.148C186.062 384.42 184.702 385.654 183.218 385.756C182.039 385.837 181.219 384.93 181.35 383.521C181.487 382.043 182.645 380.938 183.91 380.933Z" fill="#E7EAEE"/>
<path fill-rule="evenodd" clip-rule="evenodd" d="M308.978 379.663C257.765 390.966 353.923 388.969 391.434 386.493C411.848 385.146 428.15 395.344 437.51 395.987C438.761 396.073 440.016 396.081 441.269 396.01C457.67 395.082 470.252 381.166 469.592 364.808L469.568 364.311L469.24 358.412C466.337 305.267 464.833 252.123 464.729 198.978L464.724 193.073C464.724 154.338 466.538 101.215 470.164 33.6794C470.205 32.9228 470.213 32.1648 470.19 31.4075C469.734 16.7475 441.641 350.384 308.978 379.663Z" fill="#E7EAEE"/>
<path d="M460.869 366.001L461.05 366.008C461.983 366.083 462.747 367.055 462.637 368.242C462.515 369.555 461.382 370.736 460.251 370.826C459.457 370.888 458.786 370.034 458.904 368.567C459.026 367.065 459.966 366.024 460.869 366.001Z" fill="white"/>
<path fill-rule="evenodd" clip-rule="evenodd" d="M388.657 318.472C385.324 318.735 382.98 315.755 383.271 312.166C383.553 308.68 386.208 305.911 389.398 306.163C392.534 306.411 394.785 309.274 394.486 312.491C394.199 315.582 391.654 318.235 388.657 318.472ZM389.16 309.911L388.979 309.904C388.076 309.927 387.135 310.967 387.014 312.469C386.895 313.937 387.567 314.791 388.361 314.728C389.492 314.639 390.625 313.457 390.747 312.144C390.857 310.958 390.092 309.985 389.16 309.911Z" fill="white"/>
<path d="M429.149 27.0222C441.001 27.0222 450.609 36.6303 450.609 48.4825C450.609 48.9261 450.596 49.3696 450.568 49.8124L450.253 55.0697C449.677 65.048 449.101 76.8951 448.528 90.611L448.44 92.807C447.038 129.704 446.994 216.993 448.307 354.674C448.42 366.526 438.904 376.225 427.052 376.338C426.764 376.341 426.475 376.338 426.186 376.329L190.743 369.065C179.842 368.729 170.926 360.269 170.019 349.4L169.819 346.946C166.719 307.862 166.534 257.956 169.266 197.229L169.666 188.521C171.061 156.564 171.171 110.022 169.995 48.8954C169.769 37.1688 178.993 27.4584 190.669 27.0364L191.245 27.0232L429.149 27.0222Z" fill="white"/>
<path fill-rule="evenodd" clip-rule="evenodd" d="M270.853 280.102C281.255 280.54 291.936 278.695 301.199 274.169C312.801 268.5 321.53 258.99 326.363 245.353C332.727 227.391 330.389 207.969 321.24 190.875C313.096 175.66 300.292 164.081 288.49 161.218C288.49 161.218 321.24 207.286 316.548 232.47C309.374 270.976 270.853 280.102 270.853 280.102Z" fill="#E7EAEE"/>
<path fill-rule="evenodd" clip-rule="evenodd" d="M278.417 226C283.479 228.1 285.025 232.001 283.053 237.705L282.94 238.024C270.121 273.221 255.005 273.542 267.94 238.024C269.507 233.721 269.119 230.42 266.774 228.121C270.917 227.28 274.798 226.573 278.417 226Z" fill="#E7EAEE"/>
<path fill-rule="evenodd" clip-rule="evenodd" d="M198.13 184.857C201.446 175.003 206.29 167.595 215.341 161.738L216.491 161.009C218.444 159.783 220.851 158.395 222.809 159.343C225.297 160.548 228.899 164.938 226.708 166.662C225.222 167.831 219.104 169.074 214.492 173.114C209.047 177.884 205.129 185.569 205.129 187.451C205.129 193.591 196.171 190.676 198.13 184.857Z" fill="#E7EAEE"/>
<path fill-rule="evenodd" clip-rule="evenodd" d="M187.873 44.402C176.487 75.6646 176.565 81.8676 175.882 76.4791C173.672 59.0524 172.006 47.6006 174.631 40.6443C177.955 31.8374 186.287 30.1051 188.433 31.1272C192.97 33.2883 187.873 44.402 187.873 44.402Z" fill="#E7EAEE"/>
<path fill-rule="evenodd" clip-rule="evenodd" d="M375.197 205.067L371.409 204.951C366.915 204.837 363.676 204.864 360.958 205.076C358.776 205.247 357.147 205.544 356.225 205.836L356.043 205.897L356.024 205.983C355.923 206.493 355.849 207.175 355.818 208L355.808 208.315C355.747 210.79 356.046 214.097 356.641 217.789C357.128 220.817 357.794 223.962 358.488 226.613L358.662 227.265C358.931 228.254 359.191 229.114 359.419 229.784L359.501 230.022L359.6 230.06C360.996 230.556 363.771 230.614 369.12 230.22L372.754 229.936C375.202 229.756 376.986 229.679 378.746 229.701L395.823 230.058C398.212 230.103 400.37 230.138 402.485 230.166L406.321 230.209C415.902 230.767 426.43 230.348 427.74 227.964C431.735 220.691 433.618 205.712 431.734 205.612C428.345 205.432 424.244 205.219 422.295 205.245L417.795 205.327L413.715 205.359C411.852 205.37 409.908 205.376 407.823 205.378L384.418 205.324C382.897 205.313 381.407 205.276 378.721 205.188L375.197 205.067Z" fill="#E7EAEE"/>
<path fill-rule="evenodd" clip-rule="evenodd" d="M195.743 0.696308L174.049 0.0155578C173.383 -0.00589202 172.716 -0.0051617 172.05 0.0177475C155.467 0.587998 142.485 14.4937 143.056 31.077L143.221 36.1083C143.415 42.3215 143.711 48.5245 144.006 54.7173C144.508 65.2331 145.008 75.7195 145.008 86.1765L145.077 124.103C145.144 176.994 144.984 264.101 142.635 289.331L142.458 291.311C140.931 309.188 139.559 334.339 140.343 366.764L140.469 371.683C140.482 372.167 140.506 372.65 140.542 373.133C141.809 390.272 156.729 403.139 173.868 401.872L178.518 401.535L179.289 401.48C179.444 401.739 179.601 401.999 179.757 402.255C180.51 403.499 181.214 404.66 181.377 405.231C181.79 406.668 181.833 408.297 181.595 411.982L181.354 415.436L181.288 416.558C180.937 423.444 181.732 427.54 185.091 430.625C189.411 434.592 193.988 434.171 203.365 433.309L203.786 433.27L206.2 433.036C208.99 432.767 212.127 432.985 214.265 433.133L214.266 433.133C214.882 433.176 215.414 433.213 215.832 433.231L216.621 433.27C222.002 433.485 222.856 431.714 223.327 427.336C223.587 424.923 223.249 423.025 221.831 418.127L220.771 414.517L220.419 413.262C218.763 407.143 218.914 404.089 221.071 402.611C221.594 402.253 223.781 401.603 226.302 400.853C228.896 400.081 231.845 399.204 233.702 398.431C258.707 397.403 283.712 396.889 308.717 396.889C334.99 396.889 361.388 397.457 387.912 398.592C387.736 398.879 387.704 399.292 387.891 399.87C388.101 400.522 388.899 400.973 389.919 401.55C392.623 403.079 396.884 405.489 395.893 414.847L395.897 415.232C396.046 422.609 400.518 426.936 407.711 428.405C412.521 429.387 417.992 429.091 423.951 428.057C426.901 427.546 428.801 425.701 429.708 422.89C430.209 421.337 430.388 419.942 430.506 417.166C430.506 417.166 429.194 402.738 436.49 401.295C436.707 401.31 436.924 401.325 437.142 401.34C437.986 401.398 438.833 401.426 439.679 401.423C439.793 401.45 439.908 401.479 440.024 401.51C440.374 401.605 440.708 401.551 441.008 401.394C441.196 401.387 441.384 401.377 441.572 401.367C461.097 400.262 476.029 383.538 474.925 364.014L474.597 358.119C471.591 303.104 470.089 248.088 470.089 193.073C470.089 155.609 471.793 104.584 475.2 39.9984L475.521 33.967C475.57 33.0591 475.58 32.1496 475.552 31.2408C475 13.4711 460.147 -0.486382 442.377 0.0660013L431.114 0.411874C375.304 2.10398 335.146 2.98566 310.64 3.05691L306.717 3.0613C283.838 3.04361 246.846 2.25528 195.743 0.696308ZM429.166 400.808C416.765 400.007 404.392 399.329 392.046 398.773C397.957 401.643 400.065 407 400.182 414.411L400.185 414.847C400.185 419.642 403.915 422.772 408.932 423.796C409.457 423.903 409.996 424.02 410.547 424.14C414.012 424.891 417.974 425.751 422.367 425.03L423.034 424.917C426.073 423.796 426.073 412.879 426.073 412.879C426.106 411.991 426.137 411.412 426.189 410.708L426.256 409.916C426.635 405.942 427.465 402.973 429.166 400.808ZM186.534 403.751C186.243 402.735 185.827 401.836 185.29 401.064C195.816 400.352 206.343 399.731 216.87 399.201C215.225 401.033 215.071 403.509 215.01 406.466C214.958 409.014 215.473 411.724 216.556 415.542L216.621 415.77L217.612 419.144C218.826 423.311 219.19 425.054 219.088 426.514L219.066 426.762C218.92 428.117 217.18 429.646 214.239 429.475L213.713 429.448C212.452 429.257 200.03 429.475 200.03 429.475C194.295 430.056 191.533 429.257 188.719 426.673C186.83 424.938 186.324 421.858 186.696 415.962L186.928 412.652C187.22 408.325 187.195 406.299 186.65 404.177L186.534 403.751ZM172.234 5.37967C172.782 5.36085 173.329 5.36025 173.877 5.37787L193.839 6.00571C242.97 7.51183 279.238 8.31528 302.666 8.41589L306.713 8.42639L310.646 8.42199C333.597 8.35538 370.183 7.581 420.428 6.09903L442.543 5.42851L442.987 5.41832C457.598 5.20112 469.734 16.7475 470.19 31.4075C470.213 32.1648 470.205 32.9228 470.164 33.6794C466.538 101.215 464.724 154.338 464.724 193.073L464.729 198.978C464.833 252.123 466.337 305.267 469.24 358.412L469.568 364.311L469.592 364.808C470.252 381.166 457.67 395.082 441.269 396.01C440.016 396.081 438.761 396.073 437.51 395.987C394.252 393.012 351.321 391.524 308.717 391.524C265.19 391.524 221.663 393.077 178.136 396.183L173.48 396.521L173.055 396.549C159.043 397.357 146.93 386.78 145.893 372.737C145.863 372.338 145.843 371.938 145.832 371.537C144.893 336.902 145.221 310.289 146.804 291.76L147.058 288.925C148.37 273.764 149.077 238.934 149.339 189.307L149.406 173.719C149.454 159.02 149.465 144.011 149.446 127.38L149.365 81.1729C149.318 66.1553 149.057 51.0778 148.583 35.9405L148.418 30.9009L148.407 30.4927C148.163 17.0433 158.749 5.8434 172.234 5.37967ZM450.609 48.4825C450.609 36.6303 441.001 27.0222 429.149 27.0222L191.245 27.0232L190.669 27.0364C178.993 27.4584 169.769 37.1688 169.995 48.8954C171.171 110.022 171.061 156.564 169.666 188.521L169.266 197.229C166.534 257.956 166.719 307.862 169.819 346.946L170.019 349.4C170.926 360.269 179.842 368.729 190.743 369.065L426.186 376.329C426.475 376.338 426.764 376.341 427.052 376.338C438.904 376.225 448.42 366.526 448.307 354.674C446.994 216.993 447.038 129.704 448.44 92.807L448.528 90.611C449.101 76.8951 449.677 65.048 450.253 55.0697L450.568 49.8124C450.596 49.3696 450.609 48.9261 450.609 48.4825ZM191.451 32.3873H429.149C438.038 32.3873 445.244 39.5934 445.244 48.4825C445.244 48.8152 445.234 49.1479 445.213 49.4799C444.651 58.5297 444.092 69.3332 443.533 81.8926L443.167 90.3868C441.75 124.283 441.612 205.454 442.752 334.03L442.942 354.725C443.027 363.614 435.89 370.889 427.001 370.973C426.785 370.975 426.568 370.973 426.352 370.966L190.909 363.703L190.554 363.688C182.54 363.266 176.036 356.987 175.366 348.954C172.062 309.364 171.841 258.218 174.713 195.55L174.982 189.75C176.336 159.596 176.529 116.353 175.563 59.9875L175.359 48.7922C175.188 39.9046 182.254 32.5613 191.141 32.3903C191.245 32.3883 191.348 32.3873 191.451 32.3873ZM183.228 15.9332C183.567 19.5806 180.924 22.5077 177.363 22.2626C174.106 22.0385 171.241 19.4379 170.907 16.306L170.887 16.0771C170.68 12.961 173.067 10.312 176.27 9.97228L176.512 9.95116C179.927 9.71611 182.901 12.4156 183.228 15.9332ZM176.928 13.6927L176.721 13.7006C175.432 13.7899 174.523 14.7966 174.641 15.9077C174.777 17.1798 176.136 18.4138 177.62 18.5159C178.8 18.5971 179.619 17.6896 179.489 16.2806C179.351 14.8032 178.193 13.6981 176.928 13.6927ZM157.941 44.3809C154.228 44.7103 151.727 41.1384 152.035 36.8547C152.338 32.6561 155.221 29.2817 158.791 29.5984L159.022 29.6236C162.301 30.0502 164.566 33.2759 164.381 36.8916L164.364 37.1445C164.058 40.8405 161.286 44.0841 157.941 44.3809ZM158.516 33.3434L158.333 33.3345C157.195 33.3485 155.942 34.8874 155.781 37.1246C155.62 39.3597 156.581 40.7313 157.609 40.6401C159.004 40.5163 160.457 38.8164 160.621 36.8349C160.776 34.9589 159.72 33.4511 158.516 33.3434ZM435.939 15.9332C435.6 19.5806 438.243 22.5077 441.805 22.2626C445.061 22.0385 447.926 19.4379 448.26 16.306L448.28 16.0771C448.487 12.961 446.1 10.312 442.897 9.97228L442.655 9.95116C439.24 9.71611 436.266 12.4156 435.939 15.9332ZM442.239 13.6927L442.446 13.7006C443.735 13.7899 444.644 14.7966 444.526 15.9077C444.39 17.1798 443.031 18.4138 441.547 18.5159C440.367 18.5971 439.548 17.6896 439.679 16.2806C439.816 14.8032 440.974 13.6981 442.239 13.6927ZM455.936 38.2422C453.943 35.2806 455.157 31.5281 458.485 29.9979C461.695 28.5221 465.519 29.7476 467.024 32.8231L467.126 33.043C468.433 35.9867 467.333 39.3786 464.531 40.7573L464.323 40.8547C461.443 42.1313 457.759 40.9507 455.936 38.2422ZM463.672 34.517L463.575 34.3332C462.938 33.2403 461.402 32.7902 460.054 33.41C458.768 34.0012 458.392 35.1646 459.052 36.1456C459.883 37.3797 461.631 37.94 462.8 37.4214C463.822 36.9685 464.239 35.678 463.672 34.517ZM155.289 359.671C152.685 362.247 152.828 366.188 155.714 368.289C158.353 370.211 162.219 370.06 164.488 367.876L164.65 367.713C166.812 365.459 166.686 361.896 164.45 359.577L164.279 359.405C161.813 357.03 157.8 357.186 155.289 359.671ZM161.555 362.004L161.709 362.143C162.639 363.04 162.688 364.396 161.883 365.171C160.961 366.058 159.127 366.129 157.924 365.254C156.969 364.558 156.924 363.336 157.93 362.34C158.985 361.297 160.582 361.195 161.555 362.004ZM179.32 387.604C176.434 385.502 176.291 381.561 178.895 378.985C181.407 376.5 185.42 376.344 187.885 378.719L188.057 378.891C190.292 381.21 190.418 384.774 188.256 387.028L188.094 387.19C185.825 389.375 181.959 389.526 179.32 387.604ZM185.315 381.457L185.161 381.318C184.189 380.509 182.591 380.611 181.537 381.655C180.531 382.65 180.575 383.872 181.531 384.568C182.733 385.444 184.568 385.372 185.489 384.485C186.294 383.71 186.245 382.354 185.315 381.457ZM443.514 380.232C440.524 383.247 440.444 387.683 443.629 389.964C446.546 392.053 450.913 391.641 453.526 389.069C456.234 386.404 456.311 382.115 453.647 379.506C450.951 376.867 446.428 377.293 443.514 380.232ZM450.901 382.082L451.054 382.223C452.159 383.305 452.125 385.179 450.891 386.393C449.563 387.7 447.226 387.921 445.816 386.91C444.673 386.092 444.705 384.365 446.181 382.876C447.679 381.365 449.763 381.121 450.901 382.082ZM460.547 374.57C457.214 374.833 454.871 371.852 455.161 368.264C455.443 364.777 458.098 362.009 461.288 362.261C464.425 362.509 466.675 365.371 466.376 368.589C466.089 371.679 463.544 374.333 460.547 374.57ZM461.05 366.008L460.869 366.001C459.966 366.024 459.026 367.065 458.904 368.567C458.786 370.034 459.457 370.888 460.251 370.826C461.382 370.736 462.515 369.555 462.637 368.242C462.747 367.055 461.983 366.083 461.05 366.008Z" fill="#00160A"/>
<path fill-rule="evenodd" clip-rule="evenodd" d="M178.895 378.985C176.291 381.561 176.434 385.502 179.32 387.604C181.959 389.526 185.825 389.375 188.094 387.19L188.256 387.028C190.418 384.774 190.292 381.21 188.057 378.891L187.885 378.719C185.42 376.344 181.407 376.5 178.895 378.985ZM185.161 381.318L185.315 381.457C186.245 382.354 186.294 383.71 185.489 384.485C184.568 385.372 182.733 385.444 181.531 384.568C180.575 383.872 180.531 382.65 181.537 381.655C182.591 380.611 184.189 380.509 185.161 381.318Z" fill="#00160A"/>
<path d="M450.901 382.082L451.054 382.223C452.159 383.305 452.125 385.179 450.891 386.393C449.563 387.7 447.226 387.921 445.816 386.911C444.673 386.092 444.705 384.365 446.181 382.876C447.679 381.365 449.763 381.121 450.901 382.082Z" fill="white"/>
<path fill-rule="evenodd" clip-rule="evenodd" d="M214.082 151.793C212.843 152.223 211.726 152.807 210.345 153.657L209.285 154.322L208.76 154.657C200.758 159.822 195.416 166.245 191.616 174.943L191.412 175.414L191.26 175.368C190.251 175.072 189.337 174.927 188.359 175.008C186.275 175.181 184.333 176.43 183.639 178.758C182.555 182.393 183.003 186.55 184.409 190.806L184.673 191.585C186.046 195.53 187.565 198.207 190.091 198.989C193.449 200.028 205.051 195.429 209.097 191.256C211.983 188.279 210.827 184.638 208.08 182.537L207.828 182.35L207.563 182.167L207.262 181.972L207.463 181.612C207.603 181.364 207.75 181.113 207.904 180.859C209.544 178.139 211.595 175.567 213.674 173.746C214.474 173.045 215.399 172.402 216.454 171.803C218.086 170.875 224.597 168.319 225.693 167.457C229.213 164.689 228.806 160.679 226.579 157.203C225.195 155.042 223.018 153.016 220.914 151.997C218.704 150.927 216.391 150.991 214.082 151.793ZM218.809 156.343C221.297 157.548 224.899 161.938 222.708 163.662C221.222 164.831 215.104 166.074 210.492 170.114C205.047 174.884 201.129 182.569 201.129 184.451L201.75 184.684C205.145 185.991 206.438 187.061 205.63 187.895C202.029 191.609 192.243 194.6 191.519 194.376C190.806 194.156 186.583 185.781 188.266 180.137C188.491 179.383 190.446 179.956 194.13 181.857C197.446 172.003 202.29 164.595 211.341 158.738L212.491 158.009C214.444 156.783 216.851 155.395 218.809 156.343Z" fill="#00160A"/>
<path fill-rule="evenodd" clip-rule="evenodd" d="M188.85 238.172C168.973 216.451 167.823 179.396 189.296 155.533C202.636 140.708 233.991 131.159 255.932 136.482C267.734 139.345 280.538 150.925 288.682 166.139C297.831 183.234 300.169 202.656 293.805 220.617C288.973 234.254 280.243 243.765 268.641 249.433C259.378 253.959 248.697 255.804 238.295 255.366C219.524 254.576 196.183 246.187 188.85 238.172ZM283.952 168.671C276.473 154.698 264.819 144.159 254.667 141.696L254.064 141.554C234.049 137.015 205.179 145.903 193.284 159.122C173.702 180.883 174.755 214.822 192.808 234.55C199.038 241.359 221.05 249.27 238.521 250.006C248.085 250.408 257.89 248.715 266.286 244.613C276.649 239.549 284.394 231.111 288.748 218.825C294.576 202.376 292.425 184.502 283.952 168.671ZM273.617 220.075C285.489 199.233 269.395 154.229 246.915 150.473C225.785 146.942 217.775 152.068 208.662 159.97L206.9 161.516C189.065 177.285 189.065 211.16 206.489 226.876C210.868 230.825 230.132 240.957 244.915 237.858C254.717 235.802 268.359 229.305 273.617 220.075ZM224.003 156.352C225.122 155.951 226.303 155.62 227.559 155.363C227.39 155.753 227.246 156.168 227.127 156.606C226.46 159.056 226.529 161.152 227.248 166.254L227.739 169.635C227.781 169.934 227.818 170.207 227.855 170.487L227.963 171.347C228.727 177.806 228.034 181.176 225.146 183.034C222.502 184.735 219.903 185.377 213.966 186.068L211.742 186.319C209.003 186.635 207.565 186.853 205.834 187.244L205.051 187.402C202.654 187.906 200.664 188.532 199.119 189.32C200.138 180.093 203.916 171.315 210.454 165.535C216.62 160.084 219.73 157.884 224.003 156.352ZM246.031 155.765C245.163 155.619 244.318 155.49 243.496 155.375C243.668 155.811 243.814 156.275 243.935 156.765C244.437 158.811 244.523 160.628 244.401 164.767L244.342 166.553C244.28 168.271 244.25 169.294 244.241 170.276L244.241 171.454C244.292 176.69 245.112 180.171 247.126 182.528L247.35 182.78L247.439 182.818C247.564 182.868 247.721 182.924 247.909 182.987L248.107 183.052C248.569 183.199 249.147 183.362 249.888 183.557L251.127 183.873L256.414 185.168C257.453 185.426 258.377 185.662 259.261 185.895L260.716 186.287C265.088 187.491 268.438 188.665 270.876 189.974C267.236 173.676 257.214 157.633 246.031 155.765ZM271.462 201.96C271.763 201.768 272.049 201.572 272.319 201.374C272.45 207.453 271.43 213.074 268.955 217.42C265.4 223.66 255.527 229.603 245.886 232.119C246.13 231.503 246.327 230.835 246.479 230.12C246.948 227.919 247.023 225.398 246.838 221.829L246.722 219.908L246.547 217.382C246.217 212.335 246.297 210.223 246.737 209.718C248.716 207.443 251.458 206.572 258.437 205.57L260.055 205.34C265.888 204.488 268.624 203.768 271.462 201.96ZM230.455 229.505C230.528 230.41 230.829 231.334 231.316 232.206C228.842 231.684 226.268 230.932 223.644 229.972C217.776 227.824 212.086 224.7 210.082 222.892C203.719 217.152 200.056 208.488 199.094 199.366C200.742 200.125 202.922 200.767 205.629 201.408L206.045 201.506C207.138 201.759 208.255 201.995 209.574 202.255L213.342 202.987C221.777 204.72 226.131 206.729 228.121 209.412L228.321 209.692C229.639 211.614 230.004 213.79 230.11 219.439L230.17 223.463C230.217 225.872 230.291 227.47 230.455 229.505ZM236.8 155.59L237.042 155.612C239.319 155.884 239.801 157.995 239.531 165.961L239.441 168.723C239.419 169.555 239.41 170.226 239.41 170.961C239.413 175.955 240.011 179.835 241.617 182.943C241.317 182.783 240.975 182.693 240.612 182.693L240.246 182.698L240.155 182.7L240.114 182.683C239.498 182.455 238.825 182.527 238.28 182.847L238.225 182.882L238.036 182.912C233.356 183.692 228.705 186.488 226.211 190.19C223.536 194.162 223.669 198.498 226.721 202.211C223.817 200.679 219.963 199.45 214.879 198.375L213.238 198.045C212.273 197.858 211.069 197.628 211.068 197.628L210.098 197.436C209.161 197.249 208.331 197.074 207.534 196.893L207.137 196.802C204.715 196.24 202.803 195.663 201.466 195.061L201.254 194.962C200.843 194.767 200.516 194.579 200.284 194.411L200.253 194.386L200.312 194.326C200.477 194.162 200.727 193.975 201.069 193.778C202.242 193.101 204.174 192.481 206.823 191.97L207.493 191.825C208.672 191.582 209.828 191.409 211.632 191.194L214.559 190.86C221.217 190.085 224.3 189.32 227.758 187.094C232.802 183.849 233.764 178.775 232.701 170.311L232.583 169.417C232.523 168.979 232.458 168.523 232.373 167.94L232.04 165.653C231.442 161.401 231.357 159.576 231.749 158.014L231.786 157.873C232.265 156.112 233.485 155.383 236.8 155.59ZM231.812 206.289C231.876 206.371 231.938 206.453 232 206.536C234.281 209.612 234.804 212.329 234.936 219.267L234.989 222.933C235.03 225.226 235.089 226.738 235.219 228.487L235.268 229.116C235.368 230.357 237.485 232.328 239.823 231.882C241.645 231.534 242.349 228.55 242.006 221.908L241.959 221.077L241.693 217.179C241.272 210.797 241.405 208.677 242.862 206.828C239.37 208.143 235.309 208.079 231.812 206.289ZM248.495 202.798C250.66 201.979 253.416 201.425 257.244 200.864L259.319 200.567C264.168 199.859 266.512 199.279 268.498 198.113L268.867 197.888C271.114 196.456 271.33 196.171 270.331 195.364L270.007 195.113C268.24 193.783 264.826 192.454 259.913 191.076L258.874 190.79C257.753 190.486 256.602 190.19 255.245 189.853L249.598 188.468C248.531 188.2 247.678 187.976 246.983 187.77C251.348 192.385 252.07 197.579 249.07 202.016L248.901 202.261C248.77 202.444 248.635 202.623 248.495 202.798ZM238.897 187.12L239.201 187.077L239.418 187.207C246.436 191.475 247.999 196.124 245.403 199.772C242.821 203.402 237.151 204.656 233.082 202.077C228.366 199.088 227.582 195.838 229.771 192.588C231.62 189.843 235.317 187.671 238.897 187.12Z" fill="#00160A"/>
<path d="M288.569 169.292C288.672 168.916 288.765 168.744 288.799 168.688C289.311 168.343 290.413 167.948 292.32 167.677C294.22 167.407 296.556 167.305 299.146 167.3C301.725 167.295 304.469 167.385 307.18 167.479C307.339 167.485 307.499 167.49 307.658 167.496C310.184 167.584 312.679 167.671 314.888 167.673C317.48 167.676 320.115 167.685 322.769 167.694C329.261 167.716 335.872 167.739 342.264 167.673C342.547 167.67 342.953 167.662 343.459 167.651C345.5 167.608 349.165 167.531 352.906 167.652C355.237 167.727 357.513 167.878 359.37 168.147C360.299 168.282 361.069 168.44 361.661 168.612C361.954 168.698 362.177 168.78 362.339 168.852C362.494 168.921 362.555 168.963 362.555 168.963C362.555 168.963 362.554 168.963 362.554 168.963C362.613 169.008 362.875 169.268 363.18 170.027C363.471 170.751 363.721 171.733 363.896 172.941C364.245 175.354 364.251 178.363 363.904 181.335C363.555 184.323 362.873 187.088 361.961 189.067C360.955 191.25 360.111 191.592 359.911 191.614C348.701 192.836 329.737 192.419 314.603 192.087C312.909 192.049 311.263 192.013 309.682 191.981C307.76 191.941 305.758 192.07 303.852 192.218C303.387 192.255 302.93 192.292 302.479 192.328C301.041 192.445 299.674 192.556 298.352 192.613C296.62 192.686 295.137 192.654 293.916 192.449C292.907 192.28 292.209 192.013 291.729 191.697C291.68 191.582 291.618 191.428 291.546 191.233C291.311 190.594 291.026 189.682 290.72 188.554C290.111 186.307 289.459 183.36 288.977 180.353C288.491 177.326 288.195 174.349 288.252 172.005C288.281 170.827 288.397 169.921 288.569 169.292ZM291.856 191.958C291.856 191.96 291.846 191.945 291.828 191.91C291.847 191.939 291.856 191.957 291.856 191.958Z" stroke="#421EB7" stroke-width="5.36509"/>
<path fill-rule="evenodd" clip-rule="evenodd" d="M373.899 195.743C376.994 195.746 380.132 195.757 383.29 195.768C389.785 195.79 396.36 195.812 402.801 195.772L406.375 195.743C406.682 195.74 407.136 195.73 407.71 195.718C413.084 195.605 428.945 195.27 432.433 197.917C438.139 202.248 435.868 229.514 427.71 230.4C414.17 231.871 391.418 231.371 373.507 230.978H373.507H373.507C371.485 230.933 369.525 230.89 367.647 230.852C365.04 230.798 362.233 231.025 359.461 231.25L359.461 231.25H359.461C353.246 231.754 347.209 232.243 343.997 229.514C342.341 228.106 335.96 201.308 340.929 197.628C344.727 194.816 355.618 195.194 365.403 195.534L365.403 195.534C367.832 195.618 370.193 195.7 372.361 195.731L372.364 195.728L372.367 195.731C372.889 195.738 373.401 195.742 373.899 195.743ZM367.356 200.968C367.884 200.986 368.366 201.001 368.811 201.015C369.171 203.237 369.213 207.141 368.954 212.893L368.762 217.05C368.593 220.935 368.531 223.579 368.642 225.508L367.381 225.482C365.621 225.459 363.837 225.537 361.389 225.717L357.755 226.001C352.405 226.395 349.631 226.337 348.235 225.841L348.136 225.803L348.054 225.565C347.826 224.895 347.566 224.035 347.297 223.046L347.123 222.394C346.429 219.743 345.763 216.598 345.275 213.57C344.681 209.877 344.382 206.571 344.443 204.096L344.453 203.781C344.484 202.956 344.557 202.274 344.659 201.764L344.678 201.678L344.86 201.617C345.782 201.325 347.411 201.027 349.593 200.857C352.311 200.645 355.55 200.618 360.044 200.732L363.832 200.848L367.356 200.968ZM384.458 225.839L374.086 225.622C374.03 225.014 373.989 224.266 373.976 223.401L373.973 223.215C373.956 221.856 373.983 220.558 374.078 218.278L374.38 211.572C374.563 206.965 374.569 203.621 374.264 201.108L396.457 201.159C397.646 201.158 398.788 201.155 399.895 201.152C399.555 207.827 400.096 219.502 400.789 226.023C398.918 226.02 396.974 226.009 394.956 225.99L391.12 225.947C389.005 225.919 386.847 225.884 384.458 225.839ZM406.239 226.005C414.484 225.936 421.103 225.669 426.235 225.159L426.715 225.109L426.779 225.042C427.052 224.732 427.372 224.234 427.699 223.566L427.822 223.308C428.786 221.224 429.548 218.188 429.942 214.826C430.331 211.5 430.327 208.13 429.94 205.467C429.762 204.238 429.511 203.23 429.227 202.525L429.146 202.335L429.086 202.21L428.872 202.143C428.298 201.973 427.51 201.81 426.545 201.666C424.644 201.383 422.196 201.194 419.332 201.093C416.669 201 413.961 200.986 410.929 201.026L406.43 201.108L405.151 201.118C405.109 201.843 405.079 202.706 405.067 203.673L405.064 203.987C405.042 206.602 405.135 209.897 405.321 213.545L405.36 214.279C405.513 217.141 405.717 220.098 405.935 222.698L406.067 224.212C406.126 224.86 406.184 225.461 406.239 226.005ZM382.613 210.17L383.102 210.871C383.661 211.658 384.188 212.355 384.691 212.97C384.016 214.44 383.662 216.091 383.551 218.216C383.511 218.989 384.104 219.648 384.877 219.689C385.65 219.729 386.309 219.135 386.35 218.362C386.414 217.138 386.563 216.128 386.83 215.232C388.381 216.589 389.739 217.093 391.167 217.119L391.442 217.119C392.216 217.119 392.844 216.492 392.844 215.718C392.844 214.992 392.292 214.396 391.586 214.324L391.442 214.317L391.208 214.317C390.292 214.296 389.371 213.91 388.116 212.644C388.524 212.073 389.017 211.505 389.607 210.9L391.109 209.413C391.659 208.869 391.663 207.981 391.118 207.432C390.573 206.882 389.686 206.878 389.136 207.423L387.878 208.662C387.267 209.274 386.73 209.862 386.261 210.451L385.751 209.76C385.488 209.396 385.212 209.004 384.923 208.583C384.485 207.945 383.613 207.783 382.975 208.221C382.337 208.659 382.175 209.532 382.613 210.17ZM420.879 208.835L420.892 207.98C420.898 207.206 420.276 206.574 419.502 206.567C418.728 206.561 418.096 207.183 418.089 207.957C418.082 208.808 418.06 209.571 418.025 210.253C417.307 210.027 416.533 209.84 415.684 209.675L413.948 209.351C413.187 209.207 412.454 209.706 412.31 210.466C412.165 211.227 412.665 211.96 413.425 212.104L415.502 212.497C416.329 212.669 417.055 212.863 417.713 213.109C417.381 214.861 416.833 215.695 416.086 216.224L415.891 216.356L415.776 216.442C415.23 216.896 415.107 217.699 415.513 218.301C415.945 218.943 416.816 219.112 417.458 218.679L417.686 218.525C418.855 217.705 419.699 216.528 420.226 214.535C420.949 215.129 421.637 215.883 422.375 216.862C422.841 217.48 423.72 217.604 424.338 217.138C424.956 216.672 425.079 215.794 424.614 215.176C423.333 213.476 422.116 212.305 420.735 211.463C420.808 210.673 420.856 209.8 420.879 208.835Z" fill="#00160A"/>
<path fill-rule="evenodd" clip-rule="evenodd" d="M302.917 176.394L302.732 177.093C302.517 177.879 302.3 178.585 302.08 179.218C303.037 180.191 303.793 181.4 304.492 183.056C304.747 183.658 304.467 184.353 303.867 184.608C303.267 184.864 302.574 184.583 302.32 183.981C301.917 183.027 301.508 182.268 301.038 181.634C300.202 183.16 299.272 183.952 298.15 184.386L297.932 184.465C297.32 184.689 296.643 184.372 296.42 183.758C296.211 183.181 296.475 182.548 297.014 182.287L297.125 182.24L297.311 182.172C298.029 181.891 298.647 181.318 299.276 179.95C298.788 179.614 298.234 179.306 297.594 178.996L295.976 178.249C295.385 177.976 295.126 177.272 295.399 176.678C295.672 176.084 296.372 175.825 296.964 176.098L298.317 176.719C298.977 177.028 299.571 177.34 300.112 177.672C300.28 177.119 300.453 176.499 300.632 175.802C300.795 175.169 301.439 174.788 302.07 174.951C302.701 175.115 303.08 175.761 302.917 176.394Z" fill="#64FCD9"/>
</g>
</svg>
